<svg viewBox="0 0 420 256" fill="none" xmlns="http://www.w3.org/2000/svg" xmlns:anim="http://www.w3.org/2000/anim" anim="" anim:transform-origin="50% 50%" anim:duration="3" anim:ease="ease-in-out">
  <g id="tutorial-01" clip-path="url(#clip0_63_218)">
    <circle id="Ellipse 1" cx="37.5" cy="37.5" r="37.5" fill="#0B72BD" anim:opacity="1[0.5:1.5:0:ease-in-out]" anim:scale="0[0.5:1.5:1:ease-in-out]"></circle>
    <g id="Border Blue" anim:opacity="0[0.5:1:1:ease-in-out][2:2.5:0:ease-in-out]">
      <rect x="37" y="37" width="182" height="182" stroke="#0C8CE9" stroke-width="2"></rect>
    </g>
    <circle id="circle" cx="128" cy="128" r="80" fill="#292E37"></circle>
    <path id="G" d="M182.006 120.659C181.748 119.704 181.369 118.864 180.869 118.136C180.369 117.394 179.756 116.765 179.028 116.25C178.301 115.735 177.468 115.348 176.528 115.091C175.589 114.818 174.559 114.682 173.437 114.682C171.18 114.682 169.225 115.227 167.574 116.318C165.937 117.409 164.672 119 163.778 121.091C162.884 123.167 162.437 125.689 162.437 128.659C162.437 131.644 162.869 134.189 163.733 136.295C164.597 138.401 165.847 140.008 167.483 141.114C169.119 142.22 171.104 142.773 173.437 142.773C175.498 142.773 177.241 142.439 178.665 141.773C180.104 141.091 181.195 140.129 181.937 138.886C182.68 137.644 183.051 136.182 183.051 134.5L185.142 134.75H173.824V126.545H193.892V132.704C193.892 136.871 193.006 140.439 191.233 143.409C189.475 146.379 187.051 148.659 183.96 150.25C180.884 151.841 177.347 152.636 173.347 152.636C168.907 152.636 165.006 151.674 161.642 149.75C158.278 147.826 155.657 145.083 153.778 141.523C151.9 137.947 150.96 133.704 150.96 128.795C150.96 124.977 151.528 121.591 152.665 118.636C153.801 115.667 155.384 113.151 157.415 111.091C159.46 109.03 161.824 107.47 164.506 106.409C167.203 105.348 170.104 104.818 173.21 104.818C175.907 104.818 178.415 105.204 180.733 105.977C183.066 106.75 185.127 107.841 186.915 109.25C188.718 110.659 190.18 112.333 191.301 114.273C192.422 116.212 193.119 118.341 193.392 120.659H182.006Z" fill="#A2A5AF"></path>
    <path id="V" d="M115.403 105.455L125.812 139.546H126.199L136.608 105.455H149.199L133.494 152H118.517L102.812 105.455H115.403Z" fill="#A2A5AF"></path>
    <path id="S" d="M87.6818 119.409C87.5302 117.742 86.856 116.447 85.659 115.523C84.4772 114.583 82.7878 114.114 80.5909 114.114C79.1363 114.114 77.9242 114.303 76.9545 114.682C75.9848 115.061 75.2575 115.583 74.7727 116.25C74.2878 116.901 74.0378 117.651 74.0227 118.5C73.9924 119.197 74.1287 119.811 74.4318 120.341C74.7499 120.871 75.2045 121.341 75.7954 121.75C76.4015 122.144 77.1287 122.492 77.9772 122.795C78.8257 123.098 79.7802 123.364 80.8409 123.591L84.8409 124.5C87.1439 125 89.1742 125.667 90.9318 126.5C92.7045 127.333 94.1893 128.326 95.3863 129.477C96.5984 130.629 97.5151 131.954 98.1363 133.454C98.7575 134.954 99.0757 136.636 99.0909 138.5C99.0757 141.439 98.3333 143.962 96.8636 146.068C95.3939 148.174 93.2802 149.788 90.5227 150.909C87.7802 152.03 84.4696 152.591 80.5909 152.591C76.6969 152.591 73.303 152.008 70.409 150.841C67.5151 149.674 65.2651 147.901 63.659 145.523C62.053 143.144 61.2272 140.136 61.1818 136.5H71.9545C72.0454 138 72.4469 139.25 73.159 140.25C73.8712 141.25 74.8484 142.008 76.0909 142.523C77.3484 143.038 78.803 143.295 80.4545 143.295C81.9696 143.295 83.2575 143.091 84.3181 142.682C85.3939 142.273 86.2196 141.704 86.7954 140.977C87.3712 140.25 87.6666 139.417 87.6818 138.477C87.6666 137.598 87.3939 136.848 86.8636 136.227C86.3333 135.591 85.5151 135.045 84.409 134.591C83.3181 134.121 81.9242 133.689 80.2272 133.295L75.3636 132.159C71.3333 131.235 68.159 129.742 65.8409 127.682C63.5227 125.606 62.3712 122.803 62.3863 119.273C62.3712 116.394 63.1439 113.871 64.7045 111.704C66.2651 109.538 68.4242 107.848 71.1818 106.636C73.9393 105.424 77.0833 104.818 80.6136 104.818C84.2196 104.818 87.3484 105.432 89.9999 106.659C92.6666 107.871 94.7348 109.576 96.2045 111.773C97.6742 113.97 98.4242 116.515 98.4545 119.409H87.6818Z" fill="#A2A5AF"></path>
    <g id="cursor" filter="url(#filter0_d_63_218)" anim:opacity="0[0:1:1:ease-in-out][2:2.5:0:ease-in-out]" anim:x="50[0:0.6:0:ease-in-out]" anim:y="30[0.2:0.6:0:ease-in-out]">
      <path d="M38.0225 39.2138C37.8449 38.3648 38.7537 37.7045 39.5063 38.1358L69.4944 55.3223C70.2574 55.7596 70.1307 56.8967 69.2901 57.1553L54.7352 61.6326C54.5099 61.7019 54.316 61.8483 54.1876 62.046L46.9032 73.2673C46.4147 74.0199 45.2598 73.804 45.0761 72.9258L38.0225 39.2138Z" fill="#333333"></path>
      <path fill-rule="evenodd" clip-rule="evenodd" d="M40.4488 40.9932L46.5446 70.1274L52.5013 60.9514C52.8865 60.358 53.468 59.919 54.1441 59.711L66.4849 55.9148L40.4488 40.9932ZM39.5063 38.1358C38.7537 37.7045 37.8449 38.3648 38.0225 39.2138L45.0761 72.9258C45.2598 73.804 46.4147 74.0199 46.9032 73.2673L54.1876 62.046C54.316 61.8483 54.5099 61.7019 54.7352 61.6326L69.2901 57.1553C70.1307 56.8967 70.2574 55.7596 69.4944 55.3223L39.5063 38.1358Z" fill="white"></path>
    </g>
    <path id="Title BG" d="M39.0568 33V24.2727H44.2898V25.2102H40.1136V28.1591H43.8977V29.0966H40.1136V33H39.0568ZM45.8931 33V26.4545H46.8647V27.4432H46.9329C47.0522 27.1193 47.2681 26.8565 47.5806 26.6548C47.8931 26.4531 48.2454 26.3523 48.6374 26.3523C48.7113 26.3523 48.8036 26.3537 48.9144 26.3565C49.0252 26.3594 49.109 26.3636 49.1658 26.3693V27.392C49.1317 27.3835 49.0536 27.3707 48.9315 27.3537C48.8121 27.3338 48.6857 27.3239 48.5522 27.3239C48.234 27.3239 47.9499 27.3906 47.6999 27.5241C47.4528 27.6548 47.2567 27.8366 47.1119 28.0696C46.9698 28.2997 46.8988 28.5625 46.8988 28.858V33H45.8931ZM52.2841 33.1534C51.8693 33.1534 51.4929 33.0753 51.1548 32.919C50.8168 32.7599 50.5483 32.5312 50.3494 32.233C50.1506 31.9318 50.0511 31.5682 50.0511 31.142C50.0511 30.767 50.125 30.4631 50.2727 30.2301C50.4205 29.9943 50.6179 29.8097 50.8651 29.6761C51.1122 29.5426 51.3849 29.4432 51.6832 29.3778C51.9844 29.3097 52.2869 29.2557 52.5909 29.2159C52.9886 29.1648 53.3111 29.1264 53.5582 29.1009C53.8082 29.0724 53.9901 29.0256 54.1037 28.9602C54.2202 28.8949 54.2784 28.7812 54.2784 28.6193V28.5852C54.2784 28.1648 54.1634 27.8381 53.9332 27.6051C53.706 27.3722 53.3608 27.2557 52.8977 27.2557C52.4176 27.2557 52.0412 27.3608 51.7685 27.571C51.4957 27.7812 51.304 28.0057 51.1932 28.2443L50.2386 27.9034C50.4091 27.5057 50.6364 27.196 50.9205 26.9744C51.2074 26.75 51.5199 26.5937 51.858 26.5057C52.1989 26.4148 52.5341 26.3693 52.8636 26.3693C53.0739 26.3693 53.3153 26.3949 53.5881 26.446C53.8636 26.4943 54.1293 26.5952 54.3849 26.7486C54.6435 26.902 54.858 27.1335 55.0284 27.4432C55.1989 27.7528 55.2841 28.1676 55.2841 28.6875V33H54.2784V32.1136H54.2273C54.1591 32.2557 54.0455 32.4077 53.8864 32.5696C53.7273 32.7315 53.5156 32.8693 53.2514 32.983C52.9872 33.0966 52.6648 33.1534 52.2841 33.1534ZM52.4375 32.25C52.8352 32.25 53.1705 32.1719 53.4432 32.0156C53.7188 31.8594 53.9261 31.6577 54.0653 31.4105C54.2074 31.1634 54.2784 30.9034 54.2784 30.6307V29.7102C54.2358 29.7614 54.142 29.8082 53.9972 29.8509C53.8551 29.8906 53.6903 29.9261 53.5028 29.9574C53.3182 29.9858 53.1378 30.0114 52.9616 30.0341C52.7884 30.054 52.6477 30.071 52.5398 30.0852C52.2784 30.1193 52.0341 30.1747 51.8068 30.2514C51.5824 30.3253 51.4006 30.4375 51.2614 30.5881C51.125 30.7358 51.0568 30.9375 51.0568 31.1932C51.0568 31.5426 51.1861 31.8068 51.4446 31.9858C51.706 32.1619 52.0369 32.25 52.4375 32.25ZM57.1197 33V26.4545H58.0913V27.4773H58.1765C58.3129 27.1278 58.533 26.8565 58.837 26.6634C59.141 26.4673 59.506 26.3693 59.9322 26.3693C60.364 26.3693 60.7234 26.4673 61.0103 26.6634C61.3001 26.8565 61.5259 27.1278 61.6879 27.4773H61.756C61.9237 27.1392 62.1751 26.8707 62.5103 26.6719C62.8455 26.4702 63.2475 26.3693 63.7163 26.3693C64.3015 26.3693 64.7802 26.5526 65.1523 26.919C65.5245 27.2827 65.7106 27.8494 65.7106 28.6193V33H64.7049V28.6193C64.7049 28.1364 64.5728 27.7912 64.3086 27.5838C64.0444 27.3764 63.7333 27.2727 63.3754 27.2727C62.9151 27.2727 62.5586 27.4119 62.3058 27.6903C62.0529 27.9659 61.9265 28.3153 61.9265 28.7386V33H60.9038V28.517C60.9038 28.1449 60.783 27.8452 60.5415 27.6179C60.3001 27.3878 59.989 27.2727 59.6083 27.2727C59.3469 27.2727 59.1026 27.3423 58.8754 27.4815C58.6509 27.6207 58.4691 27.8139 58.3299 28.0611C58.1935 28.3054 58.1254 28.5881 58.1254 28.9091V33H57.1197ZM70.2937 33.1364C69.663 33.1364 69.119 32.9972 68.6616 32.7188C68.207 32.4375 67.8562 32.0455 67.609 31.5426C67.3647 31.0369 67.2425 30.4489 67.2425 29.7784C67.2425 29.108 67.3647 28.517 67.609 28.0057C67.8562 27.4915 68.1999 27.0909 68.6403 26.804C69.0835 26.5142 69.6005 26.3693 70.1914 26.3693C70.5323 26.3693 70.869 26.4261 71.2013 26.5398C71.5337 26.6534 71.8363 26.8381 72.109 27.0938C72.3817 27.3466 72.5991 27.6818 72.761 28.0994C72.9229 28.517 73.0039 29.0312 73.0039 29.642V30.0682H67.9585V29.1989H71.9812C71.9812 28.8295 71.9073 28.5 71.7596 28.2102C71.6147 27.9205 71.4073 27.6918 71.1374 27.5241C70.8704 27.3565 70.555 27.2727 70.1914 27.2727C69.7908 27.2727 69.4442 27.3722 69.1516 27.571C68.8619 27.767 68.6388 28.0227 68.4826 28.3381C68.3263 28.6534 68.2482 28.9915 68.2482 29.3523V29.9318C68.2482 30.4261 68.3335 30.8452 68.5039 31.1889C68.6772 31.5298 68.9173 31.7898 69.2241 31.9688C69.5309 32.1449 69.8874 32.233 70.2937 32.233C70.5579 32.233 70.7965 32.196 71.0096 32.1222C71.2255 32.0455 71.4116 31.9318 71.5678 31.7812C71.7241 31.6278 71.8448 31.4375 71.93 31.2102L72.9016 31.483C72.7994 31.8125 72.6275 32.1023 72.386 32.3523C72.1445 32.5994 71.8462 32.7926 71.4911 32.9318C71.136 33.0682 70.7369 33.1364 70.2937 33.1364Z" fill="#A2A5AF"></path>
    <path id="Title Blue" d="M39.0568 33V24.2727H44.2898V25.2102H40.1136V28.1591H43.8977V29.0966H40.1136V33H39.0568ZM45.8931 33V26.4545H46.8647V27.4432H46.9329C47.0522 27.1193 47.2681 26.8565 47.5806 26.6548C47.8931 26.4531 48.2454 26.3523 48.6374 26.3523C48.7113 26.3523 48.8036 26.3537 48.9144 26.3565C49.0252 26.3594 49.109 26.3636 49.1658 26.3693V27.392C49.1317 27.3835 49.0536 27.3707 48.9315 27.3537C48.8121 27.3338 48.6857 27.3239 48.5522 27.3239C48.234 27.3239 47.9499 27.3906 47.6999 27.5241C47.4528 27.6548 47.2567 27.8366 47.1119 28.0696C46.9698 28.2997 46.8988 28.5625 46.8988 28.858V33H45.8931ZM52.2841 33.1534C51.8693 33.1534 51.4929 33.0753 51.1548 32.919C50.8168 32.7599 50.5483 32.5312 50.3494 32.233C50.1506 31.9318 50.0511 31.5682 50.0511 31.142C50.0511 30.767 50.125 30.4631 50.2727 30.2301C50.4205 29.9943 50.6179 29.8097 50.8651 29.6761C51.1122 29.5426 51.3849 29.4432 51.6832 29.3778C51.9844 29.3097 52.2869 29.2557 52.5909 29.2159C52.9886 29.1648 53.3111 29.1264 53.5582 29.1009C53.8082 29.0724 53.9901 29.0256 54.1037 28.9602C54.2202 28.8949 54.2784 28.7812 54.2784 28.6193V28.5852C54.2784 28.1648 54.1634 27.8381 53.9332 27.6051C53.706 27.3722 53.3608 27.2557 52.8977 27.2557C52.4176 27.2557 52.0412 27.3608 51.7685 27.571C51.4957 27.7812 51.304 28.0057 51.1932 28.2443L50.2386 27.9034C50.4091 27.5057 50.6364 27.196 50.9205 26.9744C51.2074 26.75 51.5199 26.5937 51.858 26.5057C52.1989 26.4148 52.5341 26.3693 52.8636 26.3693C53.0739 26.3693 53.3153 26.3949 53.5881 26.446C53.8636 26.4943 54.1293 26.5952 54.3849 26.7486C54.6435 26.902 54.858 27.1335 55.0284 27.4432C55.1989 27.7528 55.2841 28.1676 55.2841 28.6875V33H54.2784V32.1136H54.2273C54.1591 32.2557 54.0455 32.4077 53.8864 32.5696C53.7273 32.7315 53.5156 32.8693 53.2514 32.983C52.9872 33.0966 52.6648 33.1534 52.2841 33.1534ZM52.4375 32.25C52.8352 32.25 53.1705 32.1719 53.4432 32.0156C53.7188 31.8594 53.9261 31.6577 54.0653 31.4105C54.2074 31.1634 54.2784 30.9034 54.2784 30.6307V29.7102C54.2358 29.7614 54.142 29.8082 53.9972 29.8509C53.8551 29.8906 53.6903 29.9261 53.5028 29.9574C53.3182 29.9858 53.1378 30.0114 52.9616 30.0341C52.7884 30.054 52.6477 30.071 52.5398 30.0852C52.2784 30.1193 52.0341 30.1747 51.8068 30.2514C51.5824 30.3253 51.4006 30.4375 51.2614 30.5881C51.125 30.7358 51.0568 30.9375 51.0568 31.1932C51.0568 31.5426 51.1861 31.8068 51.4446 31.9858C51.706 32.1619 52.0369 32.25 52.4375 32.25ZM57.1197 33V26.4545H58.0913V27.4773H58.1765C58.3129 27.1278 58.533 26.8565 58.837 26.6634C59.141 26.4673 59.506 26.3693 59.9322 26.3693C60.364 26.3693 60.7234 26.4673 61.0103 26.6634C61.3001 26.8565 61.5259 27.1278 61.6879 27.4773H61.756C61.9237 27.1392 62.1751 26.8707 62.5103 26.6719C62.8455 26.4702 63.2475 26.3693 63.7163 26.3693C64.3015 26.3693 64.7802 26.5526 65.1523 26.919C65.5245 27.2827 65.7106 27.8494 65.7106 28.6193V33H64.7049V28.6193C64.7049 28.1364 64.5728 27.7912 64.3086 27.5838C64.0444 27.3764 63.7333 27.2727 63.3754 27.2727C62.9151 27.2727 62.5586 27.4119 62.3058 27.6903C62.0529 27.9659 61.9265 28.3153 61.9265 28.7386V33H60.9038V28.517C60.9038 28.1449 60.783 27.8452 60.5415 27.6179C60.3001 27.3878 59.989 27.2727 59.6083 27.2727C59.3469 27.2727 59.1026 27.3423 58.8754 27.4815C58.6509 27.6207 58.4691 27.8139 58.3299 28.0611C58.1935 28.3054 58.1254 28.5881 58.1254 28.9091V33H57.1197ZM70.2937 33.1364C69.663 33.1364 69.119 32.9972 68.6616 32.7188C68.207 32.4375 67.8562 32.0455 67.609 31.5426C67.3647 31.0369 67.2425 30.4489 67.2425 29.7784C67.2425 29.108 67.3647 28.517 67.609 28.0057C67.8562 27.4915 68.1999 27.0909 68.6403 26.804C69.0835 26.5142 69.6005 26.3693 70.1914 26.3693C70.5323 26.3693 70.869 26.4261 71.2013 26.5398C71.5337 26.6534 71.8363 26.8381 72.109 27.0938C72.3817 27.3466 72.5991 27.6818 72.761 28.0994C72.9229 28.517 73.0039 29.0312 73.0039 29.642V30.0682H67.9585V29.1989H71.9812C71.9812 28.8295 71.9073 28.5 71.7596 28.2102C71.6147 27.9205 71.4073 27.6918 71.1374 27.5241C70.8704 27.3565 70.555 27.2727 70.1914 27.2727C69.7908 27.2727 69.4442 27.3722 69.1516 27.571C68.8619 27.767 68.6388 28.0227 68.4826 28.3381C68.3263 28.6534 68.2482 28.9915 68.2482 29.3523V29.9318C68.2482 30.4261 68.3335 30.8452 68.5039 31.1889C68.6772 31.5298 68.9173 31.7898 69.2241 31.9688C69.5309 32.1449 69.8874 32.233 70.2937 32.233C70.5579 32.233 70.7965 32.196 71.0096 32.1222C71.2255 32.0455 71.4116 31.9318 71.5678 31.7812C71.7241 31.6278 71.8448 31.4375 71.93 31.2102L72.9016 31.483C72.7994 31.8125 72.6275 32.1023 72.386 32.3523C72.1445 32.5994 71.8462 32.7926 71.4911 32.9318C71.136 33.0682 70.7369 33.1364 70.2937 33.1364Z" fill="#72B2E1" anim:opacity="0[0.5:1:1:ease-in-out][2:2.5:0:ease-in-out]"></path>
    <path id="Select the Master Frame for your animation" d="M246.744 46.1818C246.668 45.5341 246.357 45.0312 245.811 44.6733C245.266 44.3153 244.597 44.1364 243.804 44.1364C243.224 44.1364 242.717 44.2301 242.283 44.4176C241.852 44.6051 241.516 44.8629 241.273 45.1911C241.034 45.5192 240.915 45.892 240.915 46.3097C240.915 46.6591 240.998 46.9595 241.164 47.2109C241.335 47.4581 241.552 47.6648 241.816 47.831C242.08 47.9929 242.357 48.1271 242.647 48.2337C242.937 48.3359 243.203 48.419 243.446 48.483L244.776 48.8409C245.116 48.9304 245.496 49.054 245.913 49.2116C246.335 49.3693 246.738 49.5845 247.121 49.8572C247.509 50.1257 247.829 50.4709 248.08 50.8928C248.332 51.3146 248.457 51.8324 248.457 52.446C248.457 53.1534 248.272 53.7926 247.901 54.3636C247.535 54.9347 246.998 55.3885 246.29 55.7251C245.587 56.0618 244.733 56.2301 243.727 56.2301C242.79 56.2301 241.978 56.0788 241.292 55.7763C240.61 55.4737 240.073 55.0518 239.681 54.5107C239.293 53.9695 239.074 53.3409 239.023 52.625H240.659C240.702 53.1193 240.868 53.5284 241.158 53.8523C241.452 54.1719 241.822 54.4105 242.27 54.5682C242.722 54.7216 243.207 54.7983 243.727 54.7983C244.332 54.7983 244.876 54.7003 245.357 54.5043C245.839 54.304 246.22 54.027 246.501 53.6733C246.783 53.3153 246.923 52.8977 246.923 52.4205C246.923 51.9858 246.802 51.6321 246.559 51.3594C246.316 51.0866 245.996 50.8651 245.6 50.6946C245.204 50.5241 244.776 50.375 244.315 50.2472L242.705 49.7869C241.682 49.4929 240.872 49.0732 240.276 48.5277C239.679 47.9822 239.381 47.2685 239.381 46.3864C239.381 45.6534 239.579 45.0142 239.975 44.4688C240.376 43.919 240.913 43.4929 241.586 43.1903C242.263 42.8835 243.02 42.7301 243.855 42.7301C244.699 42.7301 245.449 42.8814 246.105 43.1839C246.761 43.4822 247.281 43.8913 247.665 44.4112C248.053 44.9311 248.257 45.5213 248.278 46.1818H246.744ZM254.976 56.2045C254.03 56.2045 253.214 55.9957 252.528 55.5781C251.846 55.1562 251.319 54.5682 250.949 53.8139C250.582 53.0554 250.399 52.1733 250.399 51.1676C250.399 50.1619 250.582 49.2756 250.949 48.5085C251.319 47.7372 251.835 47.1364 252.496 46.706C253.16 46.2713 253.936 46.054 254.822 46.054C255.334 46.054 255.839 46.1392 256.337 46.3097C256.836 46.4801 257.29 46.7571 257.699 47.1406C258.108 47.5199 258.434 48.0227 258.677 48.6491C258.92 49.2756 259.041 50.0469 259.041 50.9631V51.6023H251.473V50.2983H257.507C257.507 49.7443 257.396 49.25 257.175 48.8153C256.957 48.3807 256.646 48.0376 256.241 47.7862C255.841 47.5348 255.368 47.4091 254.822 47.4091C254.221 47.4091 253.702 47.5582 253.263 47.8565C252.828 48.1506 252.493 48.5341 252.259 49.0071C252.025 49.4801 251.907 49.9872 251.907 50.5284V51.3977C251.907 52.1392 252.035 52.7678 252.291 53.2834C252.551 53.7947 252.911 54.1847 253.371 54.4531C253.831 54.7173 254.366 54.8494 254.976 54.8494C255.372 54.8494 255.73 54.794 256.05 54.6832C256.373 54.5682 256.653 54.3977 256.887 54.1719C257.121 53.9418 257.302 53.6562 257.43 53.3153L258.888 53.7244C258.734 54.2188 258.476 54.6534 258.114 55.0284C257.752 55.3991 257.305 55.6889 256.772 55.8977C256.239 56.1023 255.64 56.2045 254.976 56.2045ZM262.844 42.9091V56H261.336V42.9091H262.844ZM269.724 56.2045C268.778 56.2045 267.962 55.9957 267.276 55.5781C266.594 55.1562 266.067 54.5682 265.697 53.8139C265.33 53.0554 265.147 52.1733 265.147 51.1676C265.147 50.1619 265.33 49.2756 265.697 48.5085C266.067 47.7372 266.583 47.1364 267.244 46.706C267.908 46.2713 268.684 46.054 269.57 46.054C270.082 46.054 270.587 46.1392 271.085 46.3097C271.584 46.4801 272.038 46.7571 272.447 47.1406C272.856 47.5199 273.182 48.0227 273.425 48.6491C273.668 49.2756 273.789 50.0469 273.789 50.9631V51.6023H266.221V50.2983H272.255C272.255 49.7443 272.144 49.25 271.923 48.8153C271.705 48.3807 271.394 48.0376 270.989 47.7862C270.589 47.5348 270.116 47.4091 269.57 47.4091C268.969 47.4091 268.45 47.5582 268.011 47.8565C267.576 48.1506 267.241 48.5341 267.007 49.0071C266.773 49.4801 266.656 49.9872 266.656 50.5284V51.3977C266.656 52.1392 266.783 52.7678 267.039 53.2834C267.299 53.7947 267.659 54.1847 268.119 54.4531C268.58 54.7173 269.114 54.8494 269.724 54.8494C270.12 54.8494 270.478 54.794 270.798 54.6832C271.121 54.5682 271.401 54.3977 271.635 54.1719C271.869 53.9418 272.05 53.6562 272.178 53.3153L273.636 53.7244C273.482 54.2188 273.224 54.6534 272.862 55.0284C272.5 55.3991 272.053 55.6889 271.52 55.8977C270.987 56.1023 270.388 56.2045 269.724 56.2045ZM280.072 56.2045C279.152 56.2045 278.359 55.9872 277.695 55.5526C277.03 55.1179 276.518 54.5192 276.161 53.7564C275.803 52.9936 275.624 52.1222 275.624 51.142C275.624 50.1449 275.807 49.2649 276.173 48.5021C276.544 47.7351 277.06 47.1364 277.72 46.706C278.385 46.2713 279.161 46.054 280.047 46.054C280.737 46.054 281.359 46.1818 281.913 46.4375C282.467 46.6932 282.921 47.0511 283.275 47.5114C283.629 47.9716 283.848 48.5085 283.933 49.1222H282.425C282.31 48.6747 282.054 48.2784 281.658 47.9332C281.266 47.5838 280.737 47.4091 280.072 47.4091C279.484 47.4091 278.969 47.5625 278.526 47.8693C278.087 48.1719 277.744 48.6001 277.496 49.1541C277.254 49.7038 277.132 50.3494 277.132 51.0909C277.132 51.8494 277.251 52.5099 277.49 53.0724C277.733 53.6349 278.074 54.0717 278.513 54.3828C278.956 54.6939 279.476 54.8494 280.072 54.8494C280.464 54.8494 280.82 54.7812 281.14 54.6449C281.46 54.5085 281.73 54.3125 281.952 54.0568C282.173 53.8011 282.331 53.4943 282.425 53.1364H283.933C283.848 53.7159 283.637 54.2379 283.3 54.7024C282.968 55.1626 282.527 55.5291 281.977 55.8018C281.432 56.0703 280.797 56.2045 280.072 56.2045ZM290.408 46.1818V47.4602H285.32V46.1818H290.408ZM286.803 43.8295H288.312V53.1875C288.312 53.6136 288.374 53.9332 288.497 54.1463C288.625 54.3551 288.787 54.4957 288.983 54.5682C289.183 54.6364 289.394 54.6705 289.616 54.6705C289.782 54.6705 289.918 54.6619 290.025 54.6449C290.131 54.6236 290.217 54.6065 290.281 54.5938L290.587 55.9489C290.485 55.9872 290.342 56.0256 290.159 56.0639C289.976 56.1065 289.744 56.1278 289.462 56.1278C289.036 56.1278 288.619 56.0362 288.21 55.853C287.805 55.6697 287.468 55.3906 287.2 55.0156C286.935 54.6406 286.803 54.1676 286.803 53.5966V43.8295ZM302.01 46.1818V47.4602H296.922V46.1818H302.01ZM298.405 43.8295H299.913V53.1875C299.913 53.6136 299.975 53.9332 300.099 54.1463C300.227 54.3551 300.388 54.4957 300.585 54.5682C300.785 54.6364 300.996 54.6705 301.217 54.6705C301.384 54.6705 301.52 54.6619 301.626 54.6449C301.733 54.6236 301.818 54.6065 301.882 54.5938L302.189 55.9489C302.087 55.9872 301.944 56.0256 301.761 56.0639C301.577 56.1065 301.345 56.1278 301.064 56.1278C300.638 56.1278 300.22 56.0362 299.811 55.853C299.406 55.6697 299.07 55.3906 298.801 55.0156C298.537 54.6406 298.405 54.1676 298.405 53.5966V43.8295ZM305.999 50.0938V56H304.49V42.9091H305.999V47.7159H306.126C306.357 47.2088 306.702 46.8061 307.162 46.5078C307.626 46.2053 308.244 46.054 309.016 46.054C309.685 46.054 310.271 46.1882 310.773 46.4567C311.276 46.7209 311.666 47.1278 311.943 47.6776C312.224 48.223 312.365 48.9176 312.365 49.7614V56H310.857V49.8636C310.857 49.0838 310.654 48.4808 310.249 48.0547C309.849 47.6243 309.293 47.4091 308.581 47.4091C308.087 47.4091 307.643 47.5135 307.251 47.7223C306.864 47.9311 306.557 48.2358 306.331 48.6364C306.109 49.0369 305.999 49.5227 305.999 50.0938ZM319.241 56.2045C318.295 56.2045 317.479 55.9957 316.793 55.5781C316.111 55.1562 315.585 54.5682 315.214 53.8139C314.848 53.0554 314.665 52.1733 314.665 51.1676C314.665 50.1619 314.848 49.2756 315.214 48.5085C315.585 47.7372 316.101 47.1364 316.761 46.706C317.426 46.2713 318.202 46.054 319.088 46.054C319.599 46.054 320.104 46.1392 320.603 46.3097C321.101 46.4801 321.555 46.7571 321.964 47.1406C322.373 47.5199 322.699 48.0227 322.942 48.6491C323.185 49.2756 323.307 50.0469 323.307 50.9631V51.6023H315.738V50.2983H321.773C321.773 49.7443 321.662 49.25 321.44 48.8153C321.223 48.3807 320.912 48.0376 320.507 47.7862C320.106 47.5348 319.633 47.4091 319.088 47.4091C318.487 47.4091 317.967 47.5582 317.528 47.8565C317.094 48.1506 316.759 48.5341 316.525 49.0071C316.29 49.4801 316.173 49.9872 316.173 50.5284V51.3977C316.173 52.1392 316.301 52.7678 316.557 53.2834C316.817 53.7947 317.177 54.1847 317.637 54.4531C318.097 54.7173 318.632 54.8494 319.241 54.8494C319.638 54.8494 319.996 54.794 320.315 54.6832C320.639 54.5682 320.918 54.3977 321.153 54.1719C321.387 53.9418 321.568 53.6562 321.696 53.3153L323.153 53.7244C323 54.2188 322.742 54.6534 322.38 55.0284C322.018 55.3991 321.57 55.6889 321.037 55.8977C320.505 56.1023 319.906 56.2045 319.241 56.2045ZM330.421 42.9091H333.834L337.439 51.7045H337.593L341.198 42.9091H344.611V56H341.927V47.4794H341.818L338.43 55.9361H336.602L333.214 47.4474H333.106V56H330.421V42.9091ZM349.64 56.1854C349.014 56.1854 348.456 56.0767 347.966 55.8594C347.475 55.6378 347.088 55.3118 346.802 54.8814C346.521 54.4467 346.38 53.9055 346.38 53.2578C346.38 52.7124 346.48 52.2543 346.681 51.8835C346.881 51.5128 347.154 51.2145 347.499 50.9886C347.844 50.7628 348.236 50.5923 348.675 50.4773C349.118 50.3622 349.583 50.2812 350.069 50.2344C350.64 50.1747 351.1 50.1193 351.449 50.0682C351.799 50.0128 352.052 49.9318 352.21 49.8253C352.368 49.7187 352.446 49.5611 352.446 49.3523V49.3139C352.446 48.9091 352.319 48.5959 352.063 48.3743C351.811 48.1527 351.453 48.0419 350.989 48.0419C350.499 48.0419 350.109 48.1506 349.819 48.3679C349.529 48.581 349.338 48.8494 349.244 49.1733L346.725 48.9688C346.853 48.3722 347.105 47.8565 347.48 47.4219C347.855 46.983 348.338 46.6463 348.931 46.4119C349.527 46.1733 350.218 46.054 351.002 46.054C351.547 46.054 352.069 46.1179 352.568 46.2457C353.071 46.3736 353.516 46.5717 353.904 46.8402C354.296 47.1087 354.605 47.4538 354.831 47.8757C355.056 48.2933 355.169 48.794 355.169 49.3778V56H352.587V54.6385H352.51C352.353 54.9453 352.142 55.2159 351.877 55.4503C351.613 55.6804 351.296 55.8615 350.925 55.9936C350.554 56.1214 350.126 56.1854 349.64 56.1854ZM350.42 54.3061C350.821 54.3061 351.174 54.2273 351.481 54.0696C351.788 53.9077 352.029 53.6903 352.203 53.4176C352.378 53.1449 352.466 52.8359 352.466 52.4908V51.4489C352.38 51.5043 352.263 51.5554 352.114 51.6023C351.969 51.6449 351.805 51.6854 351.622 51.7237C351.439 51.7578 351.255 51.7898 351.072 51.8196C350.889 51.8452 350.723 51.8686 350.574 51.8899C350.254 51.9368 349.975 52.0114 349.736 52.1136C349.498 52.2159 349.312 52.3544 349.18 52.5291C349.048 52.6996 348.982 52.9126 348.982 53.1683C348.982 53.5391 349.116 53.8224 349.385 54.0185C349.657 54.2102 350.002 54.3061 350.42 54.3061ZM365.451 48.9815L362.958 49.1349C362.915 48.9219 362.824 48.7301 362.683 48.5597C362.543 48.3849 362.357 48.2464 362.127 48.1442C361.901 48.0376 361.631 47.9844 361.315 47.9844C360.893 47.9844 360.538 48.0739 360.248 48.2528C359.958 48.4276 359.813 48.6619 359.813 48.956C359.813 49.1903 359.907 49.3885 360.094 49.5504C360.282 49.7124 360.604 49.8423 361.06 49.9403L362.837 50.2983C363.791 50.4943 364.503 50.8097 364.972 51.2443C365.44 51.679 365.675 52.25 365.675 52.9574C365.675 53.6009 365.485 54.1655 365.106 54.6513C364.731 55.1371 364.215 55.5163 363.559 55.7891C362.907 56.0575 362.155 56.1918 361.303 56.1918C360.003 56.1918 358.967 55.9212 358.196 55.38C357.429 54.8345 356.979 54.093 356.847 53.1555L359.526 53.0149C359.607 53.4112 359.803 53.7138 360.114 53.9226C360.425 54.1271 360.823 54.2294 361.309 54.2294C361.786 54.2294 362.17 54.1378 362.46 53.9545C362.754 53.767 362.903 53.5263 362.907 53.2322C362.903 52.9851 362.798 52.7827 362.594 52.625C362.389 52.4631 362.074 52.3395 361.648 52.2543L359.947 51.9155C358.989 51.7237 358.275 51.3913 357.806 50.9183C357.342 50.4453 357.109 49.8423 357.109 49.1094C357.109 48.4787 357.28 47.9354 357.621 47.4794C357.966 47.0234 358.45 46.6719 359.072 46.4247C359.698 46.1776 360.431 46.054 361.271 46.054C362.511 46.054 363.487 46.3161 364.198 46.8402C364.914 47.3643 365.332 48.0781 365.451 48.9815ZM372.612 46.1818V48.2273H366.699V46.1818H372.612ZM368.041 43.8295H370.764V52.983C370.764 53.2344 370.803 53.4304 370.879 53.571C370.956 53.7074 371.063 53.8033 371.199 53.8587C371.34 53.9141 371.502 53.9418 371.685 53.9418C371.813 53.9418 371.941 53.9311 372.068 53.9098C372.196 53.8842 372.294 53.8651 372.362 53.8523L372.791 55.8786C372.654 55.9212 372.463 55.9702 372.215 56.0256C371.968 56.0852 371.668 56.1214 371.314 56.1342C370.658 56.1598 370.083 56.0724 369.588 55.8722C369.098 55.6719 368.717 55.3608 368.444 54.9389C368.171 54.517 368.037 53.9844 368.041 53.3409V43.8295ZM378.754 56.1918C377.744 56.1918 376.875 55.9872 376.146 55.5781C375.422 55.1648 374.864 54.581 374.472 53.8267C374.08 53.0682 373.884 52.1712 373.884 51.1357C373.884 50.1257 374.08 49.2393 374.472 48.4766C374.864 47.7138 375.416 47.1193 376.127 46.6932C376.843 46.267 377.683 46.054 378.646 46.054C379.294 46.054 379.896 46.1584 380.455 46.3672C381.017 46.5717 381.507 46.8807 381.925 47.294C382.347 47.7074 382.675 48.2273 382.909 48.8537C383.144 49.4759 383.261 50.2045 383.261 51.0398V51.7876H374.97V50.1001H380.698C380.698 49.7081 380.612 49.3608 380.442 49.0582C380.271 48.7557 380.035 48.5192 379.732 48.3487C379.434 48.174 379.087 48.0866 378.691 48.0866C378.277 48.0866 377.911 48.1825 377.591 48.3743C377.276 48.5618 377.029 48.8153 376.85 49.1349C376.671 49.4503 376.579 49.8018 376.575 50.1896V51.794C376.575 52.2798 376.664 52.6996 376.843 53.0533C377.026 53.407 377.284 53.6797 377.617 53.8714C377.949 54.0632 378.343 54.1591 378.799 54.1591C379.102 54.1591 379.379 54.1165 379.63 54.0312C379.882 53.946 380.097 53.8182 380.276 53.6477C380.455 53.4773 380.591 53.2685 380.685 53.0213L383.203 53.1875C383.075 53.7926 382.813 54.321 382.417 54.7727C382.025 55.2202 381.518 55.5696 380.896 55.821C380.278 56.0682 379.564 56.1918 378.754 56.1918ZM385.038 56V46.1818H387.678V47.8949H387.78C387.959 47.2855 388.259 46.8253 388.681 46.5142C389.103 46.1989 389.589 46.0412 390.139 46.0412C390.275 46.0412 390.422 46.0497 390.58 46.0668C390.737 46.0838 390.876 46.1072 390.995 46.1371V48.5533C390.867 48.5149 390.691 48.4808 390.465 48.451C390.239 48.4212 390.032 48.4062 389.845 48.4062C389.444 48.4062 389.086 48.4936 388.771 48.6683C388.46 48.8388 388.213 49.0774 388.029 49.3842C387.85 49.6911 387.761 50.0447 387.761 50.4453V56H385.038ZM239.138 78V64.9091H247.805V67.1911H241.906V70.3104H247.23V72.5923H241.906V78H239.138ZM249.458 78V68.1818H252.098V69.8949H252.2C252.379 69.2855 252.679 68.8253 253.101 68.5142C253.523 68.1989 254.009 68.0412 254.559 68.0412C254.695 68.0412 254.842 68.0497 255 68.0668C255.157 68.0838 255.296 68.1072 255.415 68.1371V70.5533C255.287 70.5149 255.11 70.4808 254.885 70.451C254.659 70.4212 254.452 70.4062 254.265 70.4062C253.864 70.4062 253.506 70.4936 253.191 70.6683C252.88 70.8388 252.632 71.0774 252.449 71.3842C252.27 71.6911 252.181 72.0447 252.181 72.4453V78H249.458ZM259.341 78.1854C258.715 78.1854 258.157 78.0767 257.667 77.8594C257.177 77.6378 256.789 77.3118 256.503 76.8814C256.222 76.4467 256.081 75.9055 256.081 75.2578C256.081 74.7124 256.182 74.2543 256.382 73.8835C256.582 73.5128 256.855 73.2145 257.2 72.9886C257.545 72.7628 257.937 72.5923 258.376 72.4773C258.819 72.3622 259.284 72.2812 259.77 72.2344C260.341 72.1747 260.801 72.1193 261.15 72.0682C261.5 72.0128 261.753 71.9318 261.911 71.8253C262.069 71.7187 262.148 71.5611 262.148 71.3523V71.3139C262.148 70.9091 262.02 70.5959 261.764 70.3743C261.513 70.1527 261.155 70.0419 260.69 70.0419C260.2 70.0419 259.81 70.1506 259.52 70.3679C259.231 70.581 259.039 70.8494 258.945 71.1733L256.427 70.9688C256.555 70.3722 256.806 69.8565 257.181 69.4219C257.556 68.983 258.04 68.6463 258.632 68.4119C259.229 68.1733 259.919 68.054 260.703 68.054C261.248 68.054 261.77 68.1179 262.269 68.2457C262.772 68.3736 263.217 68.5717 263.605 68.8402C263.997 69.1087 264.306 69.4538 264.532 69.8757C264.758 70.2933 264.871 70.794 264.871 71.3778V78H262.288V76.6385H262.211C262.054 76.9453 261.843 77.2159 261.579 77.4503C261.314 77.6804 260.997 77.8615 260.626 77.9936C260.256 78.1214 259.827 78.1854 259.341 78.1854ZM260.121 76.3061C260.522 76.3061 260.876 76.2273 261.182 76.0696C261.489 75.9077 261.73 75.6903 261.905 75.4176C262.079 75.1449 262.167 74.8359 262.167 74.4908V73.4489C262.081 73.5043 261.964 73.5554 261.815 73.6023C261.67 73.6449 261.506 73.6854 261.323 73.7237C261.14 73.7578 260.956 73.7898 260.773 73.8196C260.59 73.8452 260.424 73.8686 260.275 73.8899C259.955 73.9368 259.676 74.0114 259.437 74.1136C259.199 74.2159 259.013 74.3544 258.881 74.5291C258.749 74.6996 258.683 74.9126 258.683 75.1683C258.683 75.5391 258.817 75.8224 259.086 76.0185C259.358 76.2102 259.704 76.3061 260.121 76.3061ZM266.983 78V68.1818H269.578V69.9141H269.693C269.898 69.3388 270.239 68.8849 270.716 68.5526C271.193 68.2202 271.764 68.054 272.429 68.054C273.102 68.054 273.676 68.2223 274.149 68.5589C274.622 68.8913 274.937 69.343 275.095 69.9141H275.197C275.397 69.3516 275.759 68.902 276.284 68.5653C276.812 68.2244 277.436 68.054 278.156 68.054C279.073 68.054 279.816 68.3459 280.387 68.9297C280.963 69.5092 281.25 70.3317 281.25 71.397V78H278.534V71.9339C278.534 71.3885 278.389 70.9794 278.099 70.7067C277.809 70.4339 277.447 70.2976 277.012 70.2976C276.518 70.2976 276.132 70.4553 275.855 70.7706C275.578 71.0817 275.44 71.4929 275.44 72.0043V78H272.8V71.8764C272.8 71.3949 272.661 71.0114 272.384 70.7259C272.112 70.4403 271.752 70.2976 271.304 70.2976C271.002 70.2976 270.729 70.3743 270.486 70.5277C270.247 70.6768 270.058 70.8878 269.917 71.1605C269.776 71.429 269.706 71.7443 269.706 72.1065V78H266.983ZM287.876 78.1918C286.866 78.1918 285.996 77.9872 285.268 77.5781C284.543 77.1648 283.985 76.581 283.593 75.8267C283.201 75.0682 283.005 74.1712 283.005 73.1357C283.005 72.1257 283.201 71.2393 283.593 70.4766C283.985 69.7138 284.537 69.1193 285.248 68.6932C285.964 68.267 286.804 68.054 287.767 68.054C288.415 68.054 289.018 68.1584 289.576 68.3672C290.138 68.5717 290.628 68.8807 291.046 69.294C291.468 69.7074 291.796 70.2273 292.03 70.8537C292.265 71.4759 292.382 72.2045 292.382 73.0398V73.7876H284.091V72.1001H289.819C289.819 71.7081 289.733 71.3608 289.563 71.0582C289.393 70.7557 289.156 70.5192 288.854 70.3487C288.555 70.174 288.208 70.0866 287.812 70.0866C287.398 70.0866 287.032 70.1825 286.712 70.3743C286.397 70.5618 286.15 70.8153 285.971 71.1349C285.792 71.4503 285.7 71.8018 285.696 72.1896V73.794C285.696 74.2798 285.785 74.6996 285.964 75.0533C286.148 75.407 286.405 75.6797 286.738 75.8714C287.07 76.0632 287.464 76.1591 287.92 76.1591C288.223 76.1591 288.5 76.1165 288.751 76.0312C289.003 75.946 289.218 75.8182 289.397 75.6477C289.576 75.4773 289.712 75.2685 289.806 75.0213L292.324 75.1875C292.197 75.7926 291.934 76.321 291.538 76.7727C291.146 77.2202 290.639 77.5696 290.017 77.821C289.399 78.0682 288.685 78.1918 287.876 78.1918ZM303.888 68.1818V69.4602H298.595V68.1818H303.888ZM300.18 78V66.8267C300.18 66.2642 300.312 65.7955 300.577 65.4205C300.841 65.0455 301.184 64.7642 301.606 64.5767C302.028 64.3892 302.473 64.2955 302.942 64.2955C303.312 64.2955 303.615 64.3253 303.849 64.3849C304.084 64.4446 304.258 64.5 304.373 64.5511L303.939 65.8551C303.862 65.8295 303.756 65.7976 303.619 65.7592C303.487 65.7209 303.312 65.7017 303.095 65.7017C302.596 65.7017 302.236 65.8274 302.015 66.0788C301.797 66.3303 301.689 66.6989 301.689 67.1847V78H300.18ZM309.586 78.2045C308.7 78.2045 307.922 77.9936 307.253 77.5717C306.588 77.1499 306.068 76.5597 305.693 75.8011C305.323 75.0426 305.137 74.1562 305.137 73.142C305.137 72.1193 305.323 71.2266 305.693 70.4638C306.068 69.701 306.588 69.1087 307.253 68.6868C307.922 68.2649 308.7 68.054 309.586 68.054C310.472 68.054 311.248 68.2649 311.913 68.6868C312.582 69.1087 313.102 69.701 313.472 70.4638C313.847 71.2266 314.035 72.1193 314.035 73.142C314.035 74.1562 313.847 75.0426 313.472 75.8011C313.102 76.5597 312.582 77.1499 311.913 77.5717C311.248 77.9936 310.472 78.2045 309.586 78.2045ZM309.586 76.8494C310.259 76.8494 310.813 76.6768 311.248 76.3317C311.683 75.9865 312.004 75.5327 312.213 74.9702C312.422 74.4077 312.526 73.7983 312.526 73.142C312.526 72.4858 312.422 71.8743 312.213 71.3075C312.004 70.7408 311.683 70.2827 311.248 69.9332C310.813 69.5838 310.259 69.4091 309.586 69.4091C308.913 69.4091 308.359 69.5838 307.924 69.9332C307.49 70.2827 307.168 70.7408 306.959 71.3075C306.75 71.8743 306.646 72.4858 306.646 73.142C306.646 73.7983 306.75 74.4077 306.959 74.9702C307.168 75.5327 307.49 75.9865 307.924 76.3317C308.359 76.6768 308.913 76.8494 309.586 76.8494ZM316.338 78V68.1818H317.795V69.6648H317.897C318.076 69.179 318.4 68.7848 318.869 68.4822C319.338 68.1797 319.866 68.0284 320.454 68.0284C320.565 68.0284 320.703 68.0305 320.87 68.0348C321.036 68.0391 321.162 68.0455 321.247 68.054V69.5881C321.196 69.5753 321.078 69.5561 320.895 69.5305C320.716 69.5007 320.527 69.4858 320.326 69.4858C319.849 69.4858 319.423 69.5859 319.048 69.7862C318.677 69.9822 318.383 70.255 318.166 70.6044C317.953 70.9496 317.846 71.3437 317.846 71.7869V78H316.338ZM329.069 81.6818C328.813 81.6818 328.585 81.6605 328.385 81.6179C328.185 81.5795 328.046 81.5412 327.97 81.5028L328.353 80.1733C328.72 80.267 329.044 80.3011 329.325 80.2756C329.606 80.25 329.855 80.1243 330.073 79.8984C330.294 79.6768 330.497 79.3168 330.68 78.8182L330.961 78.0511L327.33 68.1818H328.967L331.677 76.0057H331.779L334.49 68.1818H336.126L331.958 79.4318C331.771 79.9389 331.539 80.3587 331.262 80.6911C330.985 81.0277 330.663 81.277 330.296 81.4389C329.934 81.6009 329.525 81.6818 329.069 81.6818ZM341.754 78.2045C340.868 78.2045 340.09 77.9936 339.421 77.5717C338.756 77.1499 338.236 76.5597 337.861 75.8011C337.491 75.0426 337.305 74.1562 337.305 73.142C337.305 72.1193 337.491 71.2266 337.861 70.4638C338.236 69.701 338.756 69.1087 339.421 68.6868C340.09 68.2649 340.868 68.054 341.754 68.054C342.64 68.054 343.416 68.2649 344.081 68.6868C344.75 69.1087 345.27 69.701 345.64 70.4638C346.015 71.2266 346.203 72.1193 346.203 73.142C346.203 74.1562 346.015 75.0426 345.64 75.8011C345.27 76.5597 344.75 77.1499 344.081 77.5717C343.416 77.9936 342.64 78.2045 341.754 78.2045ZM341.754 76.8494C342.427 76.8494 342.981 76.6768 343.416 76.3317C343.851 75.9865 344.172 75.5327 344.381 74.9702C344.59 74.4077 344.694 73.7983 344.694 73.142C344.694 72.4858 344.59 71.8743 344.381 71.3075C344.172 70.7408 343.851 70.2827 343.416 69.9332C342.981 69.5838 342.427 69.4091 341.754 69.4091C341.081 69.4091 340.527 69.5838 340.092 69.9332C339.657 70.2827 339.336 70.7408 339.127 71.3075C338.918 71.8743 338.814 72.4858 338.814 73.142C338.814 73.7983 338.918 74.4077 339.127 74.9702C339.336 75.5327 339.657 75.9865 340.092 76.3317C340.527 76.6768 341.081 76.8494 341.754 76.8494ZM354.693 73.9858V68.1818H356.202V78H354.693V76.3381H354.591C354.361 76.8366 354.003 77.2607 353.517 77.6101C353.031 77.9553 352.418 78.1278 351.676 78.1278C351.062 78.1278 350.517 77.9936 350.04 77.7251C349.563 77.4524 349.188 77.0433 348.915 76.4979C348.642 75.9482 348.506 75.2557 348.506 74.4205V68.1818H350.014V74.3182C350.014 75.0341 350.214 75.6051 350.615 76.0312C351.02 76.4574 351.536 76.6705 352.162 76.6705C352.537 76.6705 352.918 76.5746 353.306 76.3828C353.698 76.1911 354.026 75.897 354.29 75.5007C354.559 75.1044 354.693 74.5994 354.693 73.9858ZM358.965 78V68.1818H360.422V69.6648H360.524C360.703 69.179 361.027 68.7848 361.496 68.4822C361.965 68.1797 362.493 68.0284 363.081 68.0284C363.192 68.0284 363.33 68.0305 363.497 68.0348C363.663 68.0391 363.789 68.0455 363.874 68.054V69.5881C363.823 69.5753 363.705 69.5561 363.522 69.5305C363.343 69.5007 363.154 69.4858 362.953 69.4858C362.476 69.4858 362.05 69.5859 361.675 69.7862C361.304 69.9822 361.01 70.255 360.793 70.6044C360.58 70.9496 360.473 71.3437 360.473 71.7869V78H358.965ZM242.27 100.23C241.648 100.23 241.083 100.113 240.576 99.8786C240.069 99.6399 239.666 99.2969 239.368 98.8494C239.07 98.3977 238.92 97.8523 238.92 97.2131C238.92 96.6506 239.031 96.1946 239.253 95.8452C239.474 95.4915 239.771 95.2145 240.141 95.0142C240.512 94.8139 240.921 94.6648 241.369 94.5668C241.82 94.4645 242.274 94.3835 242.73 94.3239C243.327 94.2472 243.81 94.1896 244.181 94.1513C244.556 94.1087 244.829 94.0384 244.999 93.9403C245.174 93.8423 245.261 93.6719 245.261 93.429V93.3778C245.261 92.7472 245.089 92.2571 244.744 91.9077C244.403 91.5582 243.885 91.3835 243.19 91.3835C242.47 91.3835 241.906 91.5412 241.496 91.8565C241.087 92.1719 240.8 92.5085 240.634 92.8665L239.202 92.3551C239.457 91.7585 239.798 91.294 240.224 90.9616C240.655 90.625 241.124 90.3906 241.631 90.2585C242.142 90.1222 242.645 90.054 243.139 90.054C243.455 90.054 243.817 90.0923 244.226 90.169C244.639 90.2415 245.038 90.3928 245.421 90.6229C245.809 90.853 246.131 91.2003 246.386 91.6648C246.642 92.1293 246.77 92.7514 246.77 93.5312V100H245.261V98.6705H245.185C245.082 98.8835 244.912 99.1115 244.673 99.3544C244.435 99.5973 244.117 99.804 243.721 99.9744C243.325 100.145 242.841 100.23 242.27 100.23ZM242.5 98.875C243.097 98.875 243.599 98.7578 244.009 98.5234C244.422 98.2891 244.733 97.9865 244.942 97.6158C245.155 97.245 245.261 96.8551 245.261 96.446V95.0653C245.197 95.142 245.057 95.2124 244.839 95.2763C244.626 95.3359 244.379 95.3892 244.098 95.4361C243.821 95.4787 243.55 95.517 243.286 95.5511C243.026 95.581 242.815 95.6065 242.653 95.6278C242.261 95.679 241.895 95.7621 241.554 95.8771C241.217 95.9879 240.945 96.1562 240.736 96.3821C240.531 96.6037 240.429 96.9062 240.429 97.2898C240.429 97.8139 240.623 98.2102 241.011 98.4787C241.403 98.7429 241.899 98.875 242.5 98.875ZM251.032 94.0938V100H249.523V90.1818H250.981V91.7159H251.108C251.339 91.2173 251.688 90.8168 252.157 90.5142C252.626 90.2074 253.231 90.054 253.972 90.054C254.637 90.054 255.219 90.1903 255.717 90.4631C256.216 90.7315 256.604 91.1406 256.881 91.6903C257.157 92.2358 257.296 92.9261 257.296 93.7614V100H255.787V93.8636C255.787 93.0923 255.587 92.4915 255.187 92.0611C254.786 91.6264 254.236 91.4091 253.537 91.4091C253.056 91.4091 252.626 91.5135 252.246 91.7223C251.871 91.9311 251.575 92.2358 251.358 92.6364C251.14 93.0369 251.032 93.5227 251.032 94.0938ZM260.053 100V90.1818H261.561V100H260.053ZM260.82 88.5455C260.526 88.5455 260.272 88.4453 260.059 88.245C259.85 88.0447 259.746 87.804 259.746 87.5227C259.746 87.2415 259.85 87.0007 260.059 86.8004C260.272 86.6001 260.526 86.5 260.82 86.5C261.114 86.5 261.365 86.6001 261.574 86.8004C261.787 87.0007 261.893 87.2415 261.893 87.5227C261.893 87.804 261.787 88.0447 261.574 88.245C261.365 88.4453 261.114 88.5455 260.82 88.5455ZM264.324 100V90.1818H265.781V91.7159H265.909C266.114 91.1918 266.444 90.7848 266.9 90.495C267.356 90.201 267.904 90.054 268.543 90.054C269.191 90.054 269.73 90.201 270.16 90.495C270.595 90.7848 270.933 91.1918 271.176 91.7159H271.279C271.53 91.2088 271.907 90.8061 272.41 90.5078C272.913 90.2053 273.516 90.054 274.219 90.054C275.097 90.054 275.815 90.3288 276.373 90.8786C276.931 91.424 277.21 92.2741 277.21 93.429V100H275.702V93.429C275.702 92.7045 275.504 92.1868 275.107 91.8757C274.711 91.5646 274.244 91.4091 273.708 91.4091C273.017 91.4091 272.482 91.6179 272.103 92.0355C271.724 92.4489 271.534 92.973 271.534 93.608V100H270V93.2756C270 92.7173 269.819 92.2678 269.457 91.9268C269.095 91.5817 268.628 91.4091 268.057 91.4091C267.665 91.4091 267.298 91.5135 266.958 91.7223C266.621 91.9311 266.348 92.2209 266.139 92.5916C265.935 92.9581 265.833 93.3821 265.833 93.8636V100H264.324ZM282.858 100.23C282.236 100.23 281.671 100.113 281.164 99.8786C280.657 99.6399 280.254 99.2969 279.956 98.8494C279.657 98.3977 279.508 97.8523 279.508 97.2131C279.508 96.6506 279.619 96.1946 279.841 95.8452C280.062 95.4915 280.358 95.2145 280.729 95.0142C281.1 94.8139 281.509 94.6648 281.956 94.5668C282.408 94.4645 282.862 94.3835 283.318 94.3239C283.915 94.2472 284.398 94.1896 284.769 94.1513C285.144 94.1087 285.417 94.0384 285.587 93.9403C285.762 93.8423 285.849 93.6719 285.849 93.429V93.3778C285.849 92.7472 285.677 92.2571 285.331 91.9077C284.991 91.5582 284.473 91.3835 283.778 91.3835C283.058 91.3835 282.493 91.5412 282.084 91.8565C281.675 92.1719 281.388 92.5085 281.221 92.8665L279.79 92.3551C280.045 91.7585 280.386 91.294 280.812 90.9616C281.243 90.625 281.711 90.3906 282.219 90.2585C282.73 90.1222 283.233 90.054 283.727 90.054C284.042 90.054 284.405 90.0923 284.814 90.169C285.227 90.2415 285.626 90.3928 286.009 90.6229C286.397 90.853 286.719 91.2003 286.974 91.6648C287.23 92.1293 287.358 92.7514 287.358 93.5312V100H285.849V98.6705H285.773C285.67 98.8835 285.5 99.1115 285.261 99.3544C285.023 99.5973 284.705 99.804 284.309 99.9744C283.912 100.145 283.429 100.23 282.858 100.23ZM283.088 98.875C283.684 98.875 284.187 98.7578 284.596 98.5234C285.01 98.2891 285.321 97.9865 285.53 97.6158C285.743 97.245 285.849 96.8551 285.849 96.446V95.0653C285.785 95.142 285.645 95.2124 285.427 95.2763C285.214 95.3359 284.967 95.3892 284.686 95.4361C284.409 95.4787 284.138 95.517 283.874 95.5511C283.614 95.581 283.403 95.6065 283.241 95.6278C282.849 95.679 282.483 95.7621 282.142 95.8771C281.805 95.9879 281.532 96.1562 281.324 96.3821C281.119 96.6037 281.017 96.9062 281.017 97.2898C281.017 97.8139 281.211 98.2102 281.599 98.4787C281.991 98.7429 282.487 98.875 283.088 98.875ZM294.381 90.1818V91.4602H289.293V90.1818H294.381ZM290.776 87.8295H292.284V97.1875C292.284 97.6136 292.346 97.9332 292.47 98.1463C292.598 98.3551 292.76 98.4957 292.956 98.5682C293.156 98.6364 293.367 98.6705 293.588 98.6705C293.755 98.6705 293.891 98.6619 293.998 98.6449C294.104 98.6236 294.189 98.6065 294.253 98.5938L294.56 99.9489C294.458 99.9872 294.315 100.026 294.132 100.064C293.949 100.107 293.716 100.128 293.435 100.128C293.009 100.128 292.591 100.036 292.182 99.853C291.777 99.6697 291.441 99.3906 291.172 99.0156C290.908 98.6406 290.776 98.1676 290.776 97.5966V87.8295ZM296.65 100V90.1818H298.159V100H296.65ZM297.417 88.5455C297.123 88.5455 296.87 88.4453 296.657 88.245C296.448 88.0447 296.343 87.804 296.343 87.5227C296.343 87.2415 296.448 87.0007 296.657 86.8004C296.87 86.6001 297.123 86.5 297.417 86.5C297.711 86.5 297.963 86.6001 298.172 86.8004C298.385 87.0007 298.491 87.2415 298.491 87.5227C298.491 87.804 298.385 88.0447 298.172 88.245C297.963 88.4453 297.711 88.5455 297.417 88.5455ZM304.91 100.205C304.024 100.205 303.246 99.9936 302.577 99.5717C301.912 99.1499 301.393 98.5597 301.018 97.8011C300.647 97.0426 300.461 96.1562 300.461 95.142C300.461 94.1193 300.647 93.2266 301.018 92.4638C301.393 91.701 301.912 91.1087 302.577 90.6868C303.246 90.2649 304.024 90.054 304.91 90.054C305.797 90.054 306.572 90.2649 307.237 90.6868C307.906 91.1087 308.426 91.701 308.797 92.4638C309.172 93.2266 309.359 94.1193 309.359 95.142C309.359 96.1562 309.172 97.0426 308.797 97.8011C308.426 98.5597 307.906 99.1499 307.237 99.5717C306.572 99.9936 305.797 100.205 304.91 100.205ZM304.91 98.8494C305.584 98.8494 306.138 98.6768 306.572 98.3317C307.007 97.9865 307.329 97.5327 307.537 96.9702C307.746 96.4077 307.851 95.7983 307.851 95.142C307.851 94.4858 307.746 93.8743 307.537 93.3075C307.329 92.7408 307.007 92.2827 306.572 91.9332C306.138 91.5838 305.584 91.4091 304.91 91.4091C304.237 91.4091 303.683 91.5838 303.248 91.9332C302.814 92.2827 302.492 92.7408 302.283 93.3075C302.074 93.8743 301.97 94.4858 301.97 95.142C301.97 95.7983 302.074 96.4077 302.283 96.9702C302.492 97.5327 302.814 97.9865 303.248 98.3317C303.683 98.6768 304.237 98.8494 304.91 98.8494ZM313.17 94.0938V100H311.662V90.1818H313.119V91.7159H313.247C313.477 91.2173 313.827 90.8168 314.295 90.5142C314.764 90.2074 315.369 90.054 316.111 90.054C316.776 90.054 317.357 90.1903 317.856 90.4631C318.354 90.7315 318.742 91.1406 319.019 91.6903C319.296 92.2358 319.435 92.9261 319.435 93.7614V100H317.926V93.8636C317.926 93.0923 317.726 92.4915 317.325 92.0611C316.925 91.6264 316.375 91.4091 315.676 91.4091C315.195 91.4091 314.764 91.5135 314.385 91.7223C314.01 91.9311 313.714 92.2358 313.496 92.6364C313.279 93.0369 313.17 93.5227 313.17 94.0938Z" fill="white"></path>
  </g>
  <defs>
    <filter id="filter0_d_63_218" x="-1.75177" y="18.1241" width="111.504" height="115.229" filterUnits="userSpaceOnUse" color-interpolation-filters="sRGB">
      <feFlood flood-opacity="0" result="BackgroundImageFix"></feFlood>
      <feColorMatrix in="SourceAlpha" type="matrix" values="0 0 0 0 0 0 0 0 0 0 0 0 0 0 0 0 0 0 127 0" result="hardAlpha"></feColorMatrix>
      <feOffset dy="19.8759"></feOffset>
      <feGaussianBlur stdDeviation="19.8759"></feGaussianBlur>
      <feColorMatrix type="matrix" values="0 0 0 0 0 0 0 0 0 0 0 0 0 0 0 0 0 0 0.28 0"></feColorMatrix>
      <feBlend mode="normal" in2="BackgroundImageFix" result="effect1_dropShadow_63_218"></feBlend>
      <feBlend mode="normal" in="SourceGraphic" in2="effect1_dropShadow_63_218" result="shape"></feBlend>
    </filter>
    <clipPath id="clip0_63_218">
      <rect width="420" height="256" fill="white"></rect>
    </clipPath>
  </defs>
</svg>