<svg viewBox="0 0 420 256" fill="none" xmlns="http://www.w3.org/2000/svg" xmlns:anim="http://www.w3.org/2000/anim" anim="" anim:transform-origin="50% 50%" anim:duration="1.5" anim:ease="ease-in-out">
  <g id="tutorial-02">
    <g id="Border Blue">
      <rect x="37" y="37" width="182" height="182" stroke="#0C8CE9" stroke-width="2"></rect>
    </g>
    <circle id="circle" cx="128" cy="128" r="80" fill="#292E37"></circle>
    <path id="G" d="M182.006 120.659C181.748 119.704 181.369 118.864 180.869 118.136C180.369 117.394 179.756 116.765 179.028 116.25C178.301 115.735 177.468 115.348 176.528 115.091C175.589 114.818 174.559 114.682 173.437 114.682C171.18 114.682 169.225 115.227 167.574 116.318C165.937 117.409 164.672 119 163.778 121.091C162.884 123.167 162.437 125.689 162.437 128.659C162.437 131.644 162.869 134.189 163.733 136.295C164.597 138.401 165.847 140.008 167.483 141.114C169.119 142.22 171.104 142.773 173.437 142.773C175.498 142.773 177.241 142.439 178.665 141.773C180.104 141.091 181.195 140.129 181.937 138.886C182.68 137.644 183.051 136.182 183.051 134.5L185.142 134.75H173.824V126.545H193.892V132.704C193.892 136.871 193.006 140.439 191.233 143.409C189.475 146.379 187.051 148.659 183.96 150.25C180.884 151.841 177.347 152.636 173.347 152.636C168.907 152.636 165.006 151.674 161.642 149.75C158.278 147.826 155.657 145.083 153.778 141.523C151.9 137.947 150.96 133.704 150.96 128.795C150.96 124.977 151.528 121.591 152.665 118.636C153.801 115.667 155.384 113.151 157.415 111.091C159.46 109.03 161.824 107.47 164.506 106.409C167.203 105.348 170.104 104.818 173.21 104.818C175.907 104.818 178.415 105.204 180.733 105.977C183.066 106.75 185.127 107.841 186.915 109.25C188.718 110.659 190.18 112.333 191.301 114.273C192.422 116.212 193.119 118.341 193.392 120.659H182.006Z" fill="#A2A5AF"></path>
    <path id="V" d="M115.403 105.455L125.812 139.546H126.199L136.608 105.455H149.199L133.494 152H118.517L102.812 105.455H115.403Z" fill="#A2A5AF"></path>
    <path id="S" d="M87.6818 119.409C87.5302 117.742 86.856 116.447 85.659 115.523C84.4772 114.583 82.7878 114.114 80.5909 114.114C79.1363 114.114 77.9242 114.303 76.9545 114.682C75.9848 115.061 75.2575 115.583 74.7727 116.25C74.2878 116.901 74.0378 117.651 74.0227 118.5C73.9924 119.197 74.1287 119.811 74.4318 120.341C74.7499 120.871 75.2045 121.341 75.7954 121.75C76.4015 122.144 77.1287 122.492 77.9772 122.795C78.8257 123.098 79.7802 123.364 80.8409 123.591L84.8409 124.5C87.1439 125 89.1742 125.667 90.9318 126.5C92.7045 127.333 94.1893 128.326 95.3863 129.477C96.5984 130.629 97.5151 131.954 98.1363 133.454C98.7575 134.954 99.0757 136.636 99.0909 138.5C99.0757 141.439 98.3333 143.962 96.8636 146.068C95.3939 148.174 93.2802 149.788 90.5227 150.909C87.7802 152.03 84.4696 152.591 80.5909 152.591C76.6969 152.591 73.303 152.008 70.409 150.841C67.5151 149.674 65.2651 147.901 63.659 145.523C62.053 143.144 61.2272 140.136 61.1818 136.5H71.9545C72.0454 138 72.4469 139.25 73.159 140.25C73.8712 141.25 74.8484 142.008 76.0909 142.523C77.3484 143.038 78.803 143.295 80.4545 143.295C81.9696 143.295 83.2575 143.091 84.3181 142.682C85.3939 142.273 86.2196 141.704 86.7954 140.977C87.3712 140.25 87.6666 139.417 87.6818 138.477C87.6666 137.598 87.3939 136.848 86.8636 136.227C86.3333 135.591 85.5151 135.045 84.409 134.591C83.3181 134.121 81.9242 133.689 80.2272 133.295L75.3636 132.159C71.3333 131.235 68.159 129.742 65.8409 127.682C63.5227 125.606 62.3712 122.803 62.3863 119.273C62.3712 116.394 63.1439 113.871 64.7045 111.704C66.2651 109.538 68.4242 107.848 71.1818 106.636C73.9393 105.424 77.0833 104.818 80.6136 104.818C84.2196 104.818 87.3484 105.432 89.9999 106.659C92.6666 107.871 94.7348 109.576 96.2045 111.773C97.6742 113.97 98.4242 116.515 98.4545 119.409H87.6818Z" fill="#A2A5AF"></path>
    <path id="Title BG" d="M39.0568 33V24.2727H44.2898V25.2102H40.1136V28.1591H43.8977V29.0966H40.1136V33H39.0568ZM45.8931 33V26.4545H46.8647V27.4432H46.9329C47.0522 27.1193 47.2681 26.8565 47.5806 26.6548C47.8931 26.4531 48.2454 26.3523 48.6374 26.3523C48.7113 26.3523 48.8036 26.3537 48.9144 26.3565C49.0252 26.3594 49.109 26.3636 49.1658 26.3693V27.392C49.1317 27.3835 49.0536 27.3707 48.9315 27.3537C48.8121 27.3338 48.6857 27.3239 48.5522 27.3239C48.234 27.3239 47.9499 27.3906 47.6999 27.5241C47.4528 27.6548 47.2567 27.8366 47.1119 28.0696C46.9698 28.2997 46.8988 28.5625 46.8988 28.858V33H45.8931ZM52.2841 33.1534C51.8693 33.1534 51.4929 33.0753 51.1548 32.919C50.8168 32.7599 50.5483 32.5312 50.3494 32.233C50.1506 31.9318 50.0511 31.5682 50.0511 31.142C50.0511 30.767 50.125 30.4631 50.2727 30.2301C50.4205 29.9943 50.6179 29.8097 50.8651 29.6761C51.1122 29.5426 51.3849 29.4432 51.6832 29.3778C51.9844 29.3097 52.2869 29.2557 52.5909 29.2159C52.9886 29.1648 53.3111 29.1264 53.5582 29.1009C53.8082 29.0724 53.9901 29.0256 54.1037 28.9602C54.2202 28.8949 54.2784 28.7812 54.2784 28.6193V28.5852C54.2784 28.1648 54.1634 27.8381 53.9332 27.6051C53.706 27.3722 53.3608 27.2557 52.8977 27.2557C52.4176 27.2557 52.0412 27.3608 51.7685 27.571C51.4957 27.7812 51.304 28.0057 51.1932 28.2443L50.2386 27.9034C50.4091 27.5057 50.6364 27.196 50.9205 26.9744C51.2074 26.75 51.5199 26.5937 51.858 26.5057C52.1989 26.4148 52.5341 26.3693 52.8636 26.3693C53.0739 26.3693 53.3153 26.3949 53.5881 26.446C53.8636 26.4943 54.1293 26.5952 54.3849 26.7486C54.6435 26.902 54.858 27.1335 55.0284 27.4432C55.1989 27.7528 55.2841 28.1676 55.2841 28.6875V33H54.2784V32.1136H54.2273C54.1591 32.2557 54.0455 32.4077 53.8864 32.5696C53.7273 32.7315 53.5156 32.8693 53.2514 32.983C52.9872 33.0966 52.6648 33.1534 52.2841 33.1534ZM52.4375 32.25C52.8352 32.25 53.1705 32.1719 53.4432 32.0156C53.7188 31.8594 53.9261 31.6577 54.0653 31.4105C54.2074 31.1634 54.2784 30.9034 54.2784 30.6307V29.7102C54.2358 29.7614 54.142 29.8082 53.9972 29.8509C53.8551 29.8906 53.6903 29.9261 53.5028 29.9574C53.3182 29.9858 53.1378 30.0114 52.9616 30.0341C52.7884 30.054 52.6477 30.071 52.5398 30.0852C52.2784 30.1193 52.0341 30.1747 51.8068 30.2514C51.5824 30.3253 51.4006 30.4375 51.2614 30.5881C51.125 30.7358 51.0568 30.9375 51.0568 31.1932C51.0568 31.5426 51.1861 31.8068 51.4446 31.9858C51.706 32.1619 52.0369 32.25 52.4375 32.25ZM57.1197 33V26.4545H58.0913V27.4773H58.1765C58.3129 27.1278 58.533 26.8565 58.837 26.6634C59.141 26.4673 59.506 26.3693 59.9322 26.3693C60.364 26.3693 60.7234 26.4673 61.0103 26.6634C61.3001 26.8565 61.5259 27.1278 61.6879 27.4773H61.756C61.9237 27.1392 62.1751 26.8707 62.5103 26.6719C62.8455 26.4702 63.2475 26.3693 63.7163 26.3693C64.3015 26.3693 64.7802 26.5526 65.1523 26.919C65.5245 27.2827 65.7106 27.8494 65.7106 28.6193V33H64.7049V28.6193C64.7049 28.1364 64.5728 27.7912 64.3086 27.5838C64.0444 27.3764 63.7333 27.2727 63.3754 27.2727C62.9151 27.2727 62.5586 27.4119 62.3058 27.6903C62.0529 27.9659 61.9265 28.3153 61.9265 28.7386V33H60.9038V28.517C60.9038 28.1449 60.783 27.8452 60.5415 27.6179C60.3001 27.3878 59.989 27.2727 59.6083 27.2727C59.3469 27.2727 59.1026 27.3423 58.8754 27.4815C58.6509 27.6207 58.4691 27.8139 58.3299 28.0611C58.1935 28.3054 58.1254 28.5881 58.1254 28.9091V33H57.1197ZM70.2937 33.1364C69.663 33.1364 69.119 32.9972 68.6616 32.7188C68.207 32.4375 67.8562 32.0455 67.609 31.5426C67.3647 31.0369 67.2425 30.4489 67.2425 29.7784C67.2425 29.108 67.3647 28.517 67.609 28.0057C67.8562 27.4915 68.1999 27.0909 68.6403 26.804C69.0835 26.5142 69.6005 26.3693 70.1914 26.3693C70.5323 26.3693 70.869 26.4261 71.2013 26.5398C71.5337 26.6534 71.8363 26.8381 72.109 27.0938C72.3817 27.3466 72.5991 27.6818 72.761 28.0994C72.9229 28.517 73.0039 29.0312 73.0039 29.642V30.0682H67.9585V29.1989H71.9812C71.9812 28.8295 71.9073 28.5 71.7596 28.2102C71.6147 27.9205 71.4073 27.6918 71.1374 27.5241C70.8704 27.3565 70.555 27.2727 70.1914 27.2727C69.7908 27.2727 69.4442 27.3722 69.1516 27.571C68.8619 27.767 68.6388 28.0227 68.4826 28.3381C68.3263 28.6534 68.2482 28.9915 68.2482 29.3523V29.9318C68.2482 30.4261 68.3335 30.8452 68.5039 31.1889C68.6772 31.5298 68.9173 31.7898 69.2241 31.9688C69.5309 32.1449 69.8874 32.233 70.2937 32.233C70.5579 32.233 70.7965 32.196 71.0096 32.1222C71.2255 32.0455 71.4116 31.9318 71.5678 31.7812C71.7241 31.6278 71.8448 31.4375 71.93 31.2102L72.9016 31.483C72.7994 31.8125 72.6275 32.1023 72.386 32.3523C72.1445 32.5994 71.8462 32.7926 71.4911 32.9318C71.136 33.0682 70.7369 33.1364 70.2937 33.1364Z" fill="#A2A5AF"></path>
    <path id="Title Blue" d="M39.0568 33V24.2727H44.2898V25.2102H40.1136V28.1591H43.8977V29.0966H40.1136V33H39.0568ZM45.8931 33V26.4545H46.8647V27.4432H46.9329C47.0522 27.1193 47.2681 26.8565 47.5806 26.6548C47.8931 26.4531 48.2454 26.3523 48.6374 26.3523C48.7113 26.3523 48.8036 26.3537 48.9144 26.3565C49.0252 26.3594 49.109 26.3636 49.1658 26.3693V27.392C49.1317 27.3835 49.0536 27.3707 48.9315 27.3537C48.8121 27.3338 48.6857 27.3239 48.5522 27.3239C48.234 27.3239 47.9499 27.3906 47.6999 27.5241C47.4528 27.6548 47.2567 27.8366 47.1119 28.0696C46.9698 28.2997 46.8988 28.5625 46.8988 28.858V33H45.8931ZM52.2841 33.1534C51.8693 33.1534 51.4929 33.0753 51.1548 32.919C50.8168 32.7599 50.5483 32.5312 50.3494 32.233C50.1506 31.9318 50.0511 31.5682 50.0511 31.142C50.0511 30.767 50.125 30.4631 50.2727 30.2301C50.4205 29.9943 50.6179 29.8097 50.8651 29.6761C51.1122 29.5426 51.3849 29.4432 51.6832 29.3778C51.9844 29.3097 52.2869 29.2557 52.5909 29.2159C52.9886 29.1648 53.3111 29.1264 53.5582 29.1009C53.8082 29.0724 53.9901 29.0256 54.1037 28.9602C54.2202 28.8949 54.2784 28.7812 54.2784 28.6193V28.5852C54.2784 28.1648 54.1634 27.8381 53.9332 27.6051C53.706 27.3722 53.3608 27.2557 52.8977 27.2557C52.4176 27.2557 52.0412 27.3608 51.7685 27.571C51.4957 27.7812 51.304 28.0057 51.1932 28.2443L50.2386 27.9034C50.4091 27.5057 50.6364 27.196 50.9205 26.9744C51.2074 26.75 51.5199 26.5937 51.858 26.5057C52.1989 26.4148 52.5341 26.3693 52.8636 26.3693C53.0739 26.3693 53.3153 26.3949 53.5881 26.446C53.8636 26.4943 54.1293 26.5952 54.3849 26.7486C54.6435 26.902 54.858 27.1335 55.0284 27.4432C55.1989 27.7528 55.2841 28.1676 55.2841 28.6875V33H54.2784V32.1136H54.2273C54.1591 32.2557 54.0455 32.4077 53.8864 32.5696C53.7273 32.7315 53.5156 32.8693 53.2514 32.983C52.9872 33.0966 52.6648 33.1534 52.2841 33.1534ZM52.4375 32.25C52.8352 32.25 53.1705 32.1719 53.4432 32.0156C53.7188 31.8594 53.9261 31.6577 54.0653 31.4105C54.2074 31.1634 54.2784 30.9034 54.2784 30.6307V29.7102C54.2358 29.7614 54.142 29.8082 53.9972 29.8509C53.8551 29.8906 53.6903 29.9261 53.5028 29.9574C53.3182 29.9858 53.1378 30.0114 52.9616 30.0341C52.7884 30.054 52.6477 30.071 52.5398 30.0852C52.2784 30.1193 52.0341 30.1747 51.8068 30.2514C51.5824 30.3253 51.4006 30.4375 51.2614 30.5881C51.125 30.7358 51.0568 30.9375 51.0568 31.1932C51.0568 31.5426 51.1861 31.8068 51.4446 31.9858C51.706 32.1619 52.0369 32.25 52.4375 32.25ZM57.1197 33V26.4545H58.0913V27.4773H58.1765C58.3129 27.1278 58.533 26.8565 58.837 26.6634C59.141 26.4673 59.506 26.3693 59.9322 26.3693C60.364 26.3693 60.7234 26.4673 61.0103 26.6634C61.3001 26.8565 61.5259 27.1278 61.6879 27.4773H61.756C61.9237 27.1392 62.1751 26.8707 62.5103 26.6719C62.8455 26.4702 63.2475 26.3693 63.7163 26.3693C64.3015 26.3693 64.7802 26.5526 65.1523 26.919C65.5245 27.2827 65.7106 27.8494 65.7106 28.6193V33H64.7049V28.6193C64.7049 28.1364 64.5728 27.7912 64.3086 27.5838C64.0444 27.3764 63.7333 27.2727 63.3754 27.2727C62.9151 27.2727 62.5586 27.4119 62.3058 27.6903C62.0529 27.9659 61.9265 28.3153 61.9265 28.7386V33H60.9038V28.517C60.9038 28.1449 60.783 27.8452 60.5415 27.6179C60.3001 27.3878 59.989 27.2727 59.6083 27.2727C59.3469 27.2727 59.1026 27.3423 58.8754 27.4815C58.6509 27.6207 58.4691 27.8139 58.3299 28.0611C58.1935 28.3054 58.1254 28.5881 58.1254 28.9091V33H57.1197ZM70.2937 33.1364C69.663 33.1364 69.119 32.9972 68.6616 32.7188C68.207 32.4375 67.8562 32.0455 67.609 31.5426C67.3647 31.0369 67.2425 30.4489 67.2425 29.7784C67.2425 29.108 67.3647 28.517 67.609 28.0057C67.8562 27.4915 68.1999 27.0909 68.6403 26.804C69.0835 26.5142 69.6005 26.3693 70.1914 26.3693C70.5323 26.3693 70.869 26.4261 71.2013 26.5398C71.5337 26.6534 71.8363 26.8381 72.109 27.0938C72.3817 27.3466 72.5991 27.6818 72.761 28.0994C72.9229 28.517 73.0039 29.0312 73.0039 29.642V30.0682H67.9585V29.1989H71.9812C71.9812 28.8295 71.9073 28.5 71.7596 28.2102C71.6147 27.9205 71.4073 27.6918 71.1374 27.5241C70.8704 27.3565 70.555 27.2727 70.1914 27.2727C69.7908 27.2727 69.4442 27.3722 69.1516 27.571C68.8619 27.767 68.6388 28.0227 68.4826 28.3381C68.3263 28.6534 68.2482 28.9915 68.2482 29.3523V29.9318C68.2482 30.4261 68.3335 30.8452 68.5039 31.1889C68.6772 31.5298 68.9173 31.7898 69.2241 31.9688C69.5309 32.1449 69.8874 32.233 70.2937 32.233C70.5579 32.233 70.7965 32.196 71.0096 32.1222C71.2255 32.0455 71.4116 31.9318 71.5678 31.7812C71.7241 31.6278 71.8448 31.4375 71.93 31.2102L72.9016 31.483C72.7994 31.8125 72.6275 32.1023 72.386 32.3523C72.1445 32.5994 71.8462 32.7926 71.4911 32.9318C71.136 33.0682 70.7369 33.1364 70.2937 33.1364Z" fill="#72B2E1"></path>
    <path id="Click the Create Animation button" d="M249.119 47H247.534C247.44 46.544 247.276 46.1435 247.042 45.7983C246.812 45.4531 246.531 45.1634 246.198 44.929C245.87 44.6903 245.506 44.5114 245.105 44.392C244.705 44.2727 244.287 44.2131 243.852 44.2131C243.06 44.2131 242.342 44.4134 241.698 44.8139C241.059 45.2145 240.55 45.8047 240.17 46.5845C239.795 47.3643 239.608 48.321 239.608 49.4545C239.608 50.5881 239.795 51.5447 240.17 52.3246C240.55 53.1044 241.059 53.6946 241.698 54.0952C242.342 54.4957 243.06 54.696 243.852 54.696C244.287 54.696 244.705 54.6364 245.105 54.517C245.506 54.3977 245.87 54.2209 246.198 53.9865C246.531 53.7479 246.812 53.456 247.042 53.1108C247.276 52.7614 247.44 52.3608 247.534 51.9091H249.119C249 52.5781 248.783 53.1768 248.467 53.7053C248.152 54.2337 247.76 54.6832 247.291 55.054C246.822 55.4205 246.296 55.6996 245.712 55.8913C245.133 56.0831 244.513 56.179 243.852 56.179C242.736 56.179 241.743 55.9062 240.874 55.3608C240.004 54.8153 239.32 54.0398 238.822 53.0341C238.323 52.0284 238.074 50.8352 238.074 49.4545C238.074 48.0739 238.323 46.8807 238.822 45.875C239.32 44.8693 240.004 44.0938 240.874 43.5483C241.743 43.0028 242.736 42.7301 243.852 42.7301C244.513 42.7301 245.133 42.826 245.712 43.0178C246.296 43.2095 246.822 43.4908 247.291 43.8615C247.76 44.228 248.152 44.6754 248.467 45.2038C248.783 45.728 249 46.3267 249.119 47ZM252.985 42.9091V56H251.476V42.9091H252.985ZM255.748 56V46.1818H257.256V56H255.748ZM256.515 44.5455C256.221 44.5455 255.967 44.4453 255.754 44.245C255.545 44.0447 255.441 43.804 255.441 43.5227C255.441 43.2415 255.545 43.0007 255.754 42.8004C255.967 42.6001 256.221 42.5 256.515 42.5C256.809 42.5 257.06 42.6001 257.269 42.8004C257.482 43.0007 257.589 43.2415 257.589 43.5227C257.589 43.804 257.482 44.0447 257.269 44.245C257.06 44.4453 256.809 44.5455 256.515 44.5455ZM264.008 56.2045C263.088 56.2045 262.295 55.9872 261.63 55.5526C260.965 55.1179 260.454 54.5192 260.096 53.7564C259.738 52.9936 259.559 52.1222 259.559 51.142C259.559 50.1449 259.742 49.2649 260.109 48.5021C260.48 47.7351 260.995 47.1364 261.656 46.706C262.32 46.2713 263.096 46.054 263.982 46.054C264.673 46.054 265.295 46.1818 265.849 46.4375C266.403 46.6932 266.857 47.0511 267.21 47.5114C267.564 47.9716 267.784 48.5085 267.869 49.1222H266.36C266.245 48.6747 265.99 48.2784 265.593 47.9332C265.201 47.5838 264.673 47.4091 264.008 47.4091C263.42 47.4091 262.904 47.5625 262.461 47.8693C262.022 48.1719 261.679 48.6001 261.432 49.1541C261.189 49.7038 261.068 50.3494 261.068 51.0909C261.068 51.8494 261.187 52.5099 261.426 53.0724C261.669 53.6349 262.009 54.0717 262.448 54.3828C262.892 54.6939 263.411 54.8494 264.008 54.8494C264.4 54.8494 264.756 54.7812 265.075 54.6449C265.395 54.5085 265.666 54.3125 265.887 54.0568C266.109 53.8011 266.267 53.4943 266.36 53.1364H267.869C267.784 53.7159 267.573 54.2379 267.236 54.7024C266.904 55.1626 266.463 55.5291 265.913 55.8018C265.367 56.0703 264.732 56.2045 264.008 56.2045ZM271.48 52.4205L271.455 50.554H271.762L276.057 46.1818H277.923L273.347 50.8097H273.219L271.48 52.4205ZM270.074 56V42.9091H271.583V56H270.074ZM276.313 56L272.477 51.142L273.551 50.0938L278.23 56H276.313ZM289.197 46.1818V47.4602H284.109V46.1818H289.197ZM285.592 43.8295H287.101V53.1875C287.101 53.6136 287.163 53.9332 287.286 54.1463C287.414 54.3551 287.576 54.4957 287.772 54.5682C287.972 54.6364 288.183 54.6705 288.405 54.6705C288.571 54.6705 288.707 54.6619 288.814 54.6449C288.92 54.6236 289.006 54.6065 289.07 54.5938L289.376 55.9489C289.274 55.9872 289.131 56.0256 288.948 56.0639C288.765 56.1065 288.533 56.1278 288.251 56.1278C287.825 56.1278 287.408 56.0362 286.999 55.853C286.594 55.6697 286.257 55.3906 285.989 55.0156C285.724 54.6406 285.592 54.1676 285.592 53.5966V43.8295ZM293.186 50.0938V56H291.678V42.9091H293.186V47.7159H293.314C293.544 47.2088 293.889 46.8061 294.349 46.5078C294.814 46.2053 295.432 46.054 296.203 46.054C296.872 46.054 297.458 46.1882 297.961 46.4567C298.464 46.7209 298.854 47.1278 299.131 47.6776C299.412 48.223 299.553 48.9176 299.553 49.7614V56H298.044V49.8636C298.044 49.0838 297.842 48.4808 297.437 48.0547C297.036 47.6243 296.48 47.4091 295.768 47.4091C295.274 47.4091 294.831 47.5135 294.439 47.7223C294.051 47.9311 293.744 48.2358 293.518 48.6364C293.297 49.0369 293.186 49.5227 293.186 50.0938ZM306.429 56.2045C305.483 56.2045 304.667 55.9957 303.981 55.5781C303.299 55.1562 302.773 54.5682 302.402 53.8139C302.035 53.0554 301.852 52.1733 301.852 51.1676C301.852 50.1619 302.035 49.2756 302.402 48.5085C302.773 47.7372 303.288 47.1364 303.949 46.706C304.613 46.2713 305.389 46.054 306.275 46.054C306.787 46.054 307.292 46.1392 307.79 46.3097C308.289 46.4801 308.743 46.7571 309.152 47.1406C309.561 47.5199 309.887 48.0227 310.13 48.6491C310.373 49.2756 310.494 50.0469 310.494 50.9631V51.6023H302.926V50.2983H308.96C308.96 49.7443 308.849 49.25 308.628 48.8153C308.41 48.3807 308.099 48.0376 307.694 47.7862C307.294 47.5348 306.821 47.4091 306.275 47.4091C305.675 47.4091 305.155 47.5582 304.716 47.8565C304.281 48.1506 303.947 48.5341 303.712 49.0071C303.478 49.4801 303.361 49.9872 303.361 50.5284V51.3977C303.361 52.1392 303.488 52.7678 303.744 53.2834C304.004 53.7947 304.364 54.1847 304.824 54.4531C305.285 54.7173 305.819 54.8494 306.429 54.8494C306.825 54.8494 307.183 54.794 307.503 54.6832C307.827 54.5682 308.106 54.3977 308.34 54.1719C308.574 53.9418 308.756 53.6562 308.883 53.3153L310.341 53.7244C310.187 54.2188 309.93 54.6534 309.567 55.0284C309.205 55.3991 308.758 55.6889 308.225 55.8977C307.692 56.1023 307.094 56.2045 306.429 56.2045ZM329.159 47.4922H326.359C326.308 47.13 326.204 46.8082 326.046 46.527C325.888 46.2415 325.686 45.9986 325.439 45.7983C325.192 45.598 324.906 45.4446 324.582 45.3381C324.263 45.2315 323.915 45.1783 323.54 45.1783C322.863 45.1783 322.273 45.3466 321.77 45.6832C321.267 46.0156 320.877 46.5014 320.6 47.1406C320.323 47.7756 320.184 48.5469 320.184 49.4545C320.184 50.3878 320.323 51.1719 320.6 51.8068C320.881 52.4418 321.273 52.9212 321.776 53.245C322.279 53.5689 322.861 53.7308 323.521 53.7308C323.892 53.7308 324.235 53.6818 324.55 53.5838C324.87 53.4858 325.153 53.343 325.4 53.1555C325.648 52.9638 325.852 52.7315 326.014 52.4588C326.18 52.1861 326.295 51.875 326.359 51.5256L329.159 51.5384C329.086 52.1392 328.905 52.7188 328.616 53.277C328.33 53.831 327.944 54.3274 327.459 54.7663C326.977 55.201 326.402 55.5462 325.733 55.8018C325.068 56.0533 324.316 56.179 323.476 56.179C322.309 56.179 321.265 55.9148 320.344 55.3864C319.428 54.858 318.704 54.093 318.171 53.0916C317.643 52.0902 317.378 50.8778 317.378 49.4545C317.378 48.027 317.647 46.8125 318.184 45.8111C318.721 44.8097 319.449 44.0469 320.37 43.5227C321.29 42.9943 322.326 42.7301 323.476 42.7301C324.235 42.7301 324.938 42.8366 325.586 43.0497C326.238 43.2628 326.815 43.5739 327.318 43.983C327.821 44.3878 328.23 44.8842 328.545 45.4723C328.865 46.0604 329.069 46.7337 329.159 47.4922ZM331.093 56V46.1818H333.732V47.8949H333.835C334.014 47.2855 334.314 46.8253 334.736 46.5142C335.158 46.1989 335.644 46.0412 336.193 46.0412C336.33 46.0412 336.477 46.0497 336.634 46.0668C336.792 46.0838 336.931 46.1072 337.05 46.1371V48.5533C336.922 48.5149 336.745 48.4808 336.519 48.451C336.294 48.4212 336.087 48.4062 335.899 48.4062C335.499 48.4062 335.141 48.4936 334.825 48.6683C334.514 48.8388 334.267 49.0774 334.084 49.3842C333.905 49.6911 333.816 50.0447 333.816 50.4453V56H331.093ZM342.475 56.1918C341.465 56.1918 340.596 55.9872 339.867 55.5781C339.143 55.1648 338.585 54.581 338.192 53.8267C337.8 53.0682 337.604 52.1712 337.604 51.1357C337.604 50.1257 337.8 49.2393 338.192 48.4766C338.585 47.7138 339.136 47.1193 339.848 46.6932C340.564 46.267 341.403 46.054 342.366 46.054C343.014 46.054 343.617 46.1584 344.175 46.3672C344.738 46.5717 345.228 46.8807 345.646 47.294C346.067 47.7074 346.396 48.2273 346.63 48.8537C346.864 49.4759 346.982 50.2045 346.982 51.0398V51.7876H338.691V50.1001H344.418C344.418 49.7081 344.333 49.3608 344.163 49.0582C343.992 48.7557 343.756 48.5192 343.453 48.3487C343.155 48.174 342.808 48.0866 342.411 48.0866C341.998 48.0866 341.631 48.1825 341.312 48.3743C340.996 48.5618 340.749 48.8153 340.57 49.1349C340.391 49.4503 340.3 49.8018 340.295 50.1896V51.794C340.295 52.2798 340.385 52.6996 340.564 53.0533C340.747 53.407 341.005 53.6797 341.337 53.8714C341.67 54.0632 342.064 54.1591 342.52 54.1591C342.822 54.1591 343.099 54.1165 343.351 54.0312C343.602 53.946 343.817 53.8182 343.996 53.6477C344.175 53.4773 344.312 53.2685 344.406 53.0213L346.924 53.1875C346.796 53.7926 346.534 54.321 346.138 54.7727C345.746 55.2202 345.239 55.5696 344.616 55.821C343.999 56.0682 343.285 56.1918 342.475 56.1918ZM351.558 56.1854C350.932 56.1854 350.374 56.0767 349.884 55.8594C349.393 55.6378 349.006 55.3118 348.72 54.8814C348.439 54.4467 348.298 53.9055 348.298 53.2578C348.298 52.7124 348.398 52.2543 348.599 51.8835C348.799 51.5128 349.072 51.2145 349.417 50.9886C349.762 50.7628 350.154 50.5923 350.593 50.4773C351.036 50.3622 351.501 50.2812 351.987 50.2344C352.558 50.1747 353.018 50.1193 353.367 50.0682C353.717 50.0128 353.97 49.9318 354.128 49.8253C354.286 49.7187 354.364 49.5611 354.364 49.3523V49.3139C354.364 48.9091 354.237 48.5959 353.981 48.3743C353.729 48.1527 353.371 48.0419 352.907 48.0419C352.417 48.0419 352.027 48.1506 351.737 48.3679C351.447 48.581 351.256 48.8494 351.162 49.1733L348.643 48.9688C348.771 48.3722 349.023 47.8565 349.398 47.4219C349.773 46.983 350.256 46.6463 350.849 46.4119C351.445 46.1733 352.136 46.054 352.92 46.054C353.465 46.054 353.987 46.1179 354.486 46.2457C354.989 46.3736 355.434 46.5717 355.822 46.8402C356.214 47.1087 356.523 47.4538 356.749 47.8757C356.974 48.2933 357.087 48.794 357.087 49.3778V56H354.505V54.6385H354.428C354.271 54.9453 354.06 55.2159 353.795 55.4503C353.531 55.6804 353.214 55.8615 352.843 55.9936C352.472 56.1214 352.044 56.1854 351.558 56.1854ZM352.338 54.3061C352.739 54.3061 353.092 54.2273 353.399 54.0696C353.706 53.9077 353.947 53.6903 354.121 53.4176C354.296 53.1449 354.384 52.8359 354.384 52.4908V51.4489C354.298 51.5043 354.181 51.5554 354.032 51.6023C353.887 51.6449 353.723 51.6854 353.54 51.7237C353.357 51.7578 353.173 51.7898 352.99 51.8196C352.807 51.8452 352.641 51.8686 352.491 51.8899C352.172 51.9368 351.893 52.0114 351.654 52.1136C351.415 52.2159 351.23 52.3544 351.098 52.5291C350.966 52.6996 350.9 52.9126 350.9 53.1683C350.9 53.5391 351.034 53.8224 351.303 54.0185C351.575 54.2102 351.92 54.3061 352.338 54.3061ZM364.422 46.1818V48.2273H358.51V46.1818H364.422ZM359.852 43.8295H362.575V52.983C362.575 53.2344 362.613 53.4304 362.69 53.571C362.767 53.7074 362.873 53.8033 363.01 53.8587C363.15 53.9141 363.312 53.9418 363.495 53.9418C363.623 53.9418 363.751 53.9311 363.879 53.9098C364.007 53.8842 364.105 53.8651 364.173 53.8523L364.601 55.8786C364.465 55.9212 364.273 55.9702 364.026 56.0256C363.779 56.0852 363.478 56.1214 363.125 56.1342C362.468 56.1598 361.893 56.0724 361.399 55.8722C360.909 55.6719 360.527 55.3608 360.255 54.9389C359.982 54.517 359.848 53.9844 359.852 53.3409V43.8295ZM370.565 56.1918C369.555 56.1918 368.686 55.9872 367.957 55.5781C367.233 55.1648 366.674 54.581 366.282 53.8267C365.89 53.0682 365.694 52.1712 365.694 51.1357C365.694 50.1257 365.89 49.2393 366.282 48.4766C366.674 47.7138 367.226 47.1193 367.938 46.6932C368.654 46.267 369.493 46.054 370.456 46.054C371.104 46.054 371.707 46.1584 372.265 46.3672C372.828 46.5717 373.318 46.8807 373.735 47.294C374.157 47.7074 374.485 48.2273 374.72 48.8537C374.954 49.4759 375.071 50.2045 375.071 51.0398V51.7876H366.781V50.1001H372.508C372.508 49.7081 372.423 49.3608 372.252 49.0582C372.082 48.7557 371.846 48.5192 371.543 48.3487C371.245 48.174 370.897 48.0866 370.501 48.0866C370.088 48.0866 369.721 48.1825 369.402 48.3743C369.086 48.5618 368.839 48.8153 368.66 49.1349C368.481 49.4503 368.39 49.8018 368.385 50.1896V51.794C368.385 52.2798 368.475 52.6996 368.654 53.0533C368.837 53.407 369.095 53.6797 369.427 53.8714C369.76 54.0632 370.154 54.1591 370.61 54.1591C370.912 54.1591 371.189 54.1165 371.441 54.0312C371.692 53.946 371.907 53.8182 372.086 53.6477C372.265 53.4773 372.402 53.2685 372.495 53.0213L375.014 53.1875C374.886 53.7926 374.624 54.321 374.228 54.7727C373.836 55.2202 373.328 55.5696 372.706 55.821C372.088 56.0682 371.375 56.1918 370.565 56.1918ZM240.394 78H237.428L241.947 64.9091H245.514L250.027 78H247.061L243.782 67.9006H243.68L240.394 78ZM240.209 72.8544H247.214V75.0149H240.209V72.8544ZM254.275 72.3239V78H251.551V68.1818H254.147V69.9141H254.262C254.479 69.343 254.843 68.8913 255.355 68.5589C255.866 68.2223 256.486 68.054 257.215 68.054C257.897 68.054 258.491 68.2031 258.998 68.5014C259.505 68.7997 259.9 69.2259 260.181 69.7798C260.462 70.3295 260.603 70.9858 260.603 71.7486V78H257.88V72.2344C257.884 71.6335 257.73 71.1648 257.419 70.8281C257.108 70.4872 256.68 70.3168 256.135 70.3168C255.768 70.3168 255.444 70.3956 255.163 70.5533C254.886 70.7109 254.669 70.9411 254.511 71.2436C254.358 71.5419 254.279 71.902 254.275 72.3239ZM262.749 78V68.1818H265.472V78H262.749ZM264.117 66.9162C263.712 66.9162 263.365 66.782 263.075 66.5135C262.789 66.2408 262.646 65.9148 262.646 65.5355C262.646 65.1605 262.789 64.8388 263.075 64.5703C263.365 64.2976 263.712 64.1612 264.117 64.1612C264.521 64.1612 264.867 64.2976 265.152 64.5703C265.442 64.8388 265.587 65.1605 265.587 65.5355C265.587 65.9148 265.442 66.2408 265.152 66.5135C264.867 66.782 264.521 66.9162 264.117 66.9162ZM267.653 78V68.1818H270.248V69.9141H270.363C270.568 69.3388 270.909 68.8849 271.386 68.5526C271.863 68.2202 272.434 68.054 273.099 68.054C273.772 68.054 274.346 68.2223 274.819 68.5589C275.292 68.8913 275.607 69.343 275.765 69.9141H275.867C276.067 69.3516 276.429 68.902 276.953 68.5653C277.482 68.2244 278.106 68.054 278.826 68.054C279.743 68.054 280.486 68.3459 281.057 68.9297C281.632 69.5092 281.92 70.3317 281.92 71.397V78H279.203V71.9339C279.203 71.3885 279.059 70.9794 278.769 70.7067C278.479 70.4339 278.117 70.2976 277.682 70.2976C277.188 70.2976 276.802 70.4553 276.525 70.7706C276.248 71.0817 276.11 71.4929 276.11 72.0043V78H273.47V71.8764C273.47 71.3949 273.331 71.0114 273.054 70.7259C272.782 70.4403 272.422 70.2976 271.974 70.2976C271.672 70.2976 271.399 70.3743 271.156 70.5277C270.917 70.6768 270.728 70.8878 270.587 71.1605C270.446 71.429 270.376 71.7443 270.376 72.1065V78H267.653ZM286.871 78.1854C286.244 78.1854 285.686 78.0767 285.196 77.8594C284.706 77.6378 284.318 77.3118 284.033 76.8814C283.751 76.4467 283.611 75.9055 283.611 75.2578C283.611 74.7124 283.711 74.2543 283.911 73.8835C284.112 73.5128 284.384 73.2145 284.729 72.9886C285.075 72.7628 285.467 72.5923 285.906 72.4773C286.349 72.3622 286.813 72.2812 287.299 72.2344C287.87 72.1747 288.33 72.1193 288.68 72.0682C289.029 72.0128 289.283 71.9318 289.44 71.8253C289.598 71.7187 289.677 71.5611 289.677 71.3523V71.3139C289.677 70.9091 289.549 70.5959 289.293 70.3743C289.042 70.1527 288.684 70.0419 288.219 70.0419C287.729 70.0419 287.339 70.1506 287.05 70.3679C286.76 70.581 286.568 70.8494 286.474 71.1733L283.956 70.9688C284.084 70.3722 284.335 69.8565 284.71 69.4219C285.085 68.983 285.569 68.6463 286.161 68.4119C286.758 68.1733 287.448 68.054 288.232 68.054C288.778 68.054 289.3 68.1179 289.798 68.2457C290.301 68.3736 290.746 68.5717 291.134 68.8402C291.526 69.1087 291.835 69.4538 292.061 69.8757C292.287 70.2933 292.4 70.794 292.4 71.3778V78H289.817V76.6385H289.741C289.583 76.9453 289.372 77.2159 289.108 77.4503C288.844 77.6804 288.526 77.8615 288.156 77.9936C287.785 78.1214 287.357 78.1854 286.871 78.1854ZM287.651 76.3061C288.051 76.3061 288.405 76.2273 288.712 76.0696C289.018 75.9077 289.259 75.6903 289.434 75.4176C289.609 75.1449 289.696 74.8359 289.696 74.4908V73.4489C289.611 73.5043 289.494 73.5554 289.344 73.6023C289.2 73.6449 289.036 73.6854 288.852 73.7237C288.669 73.7578 288.486 73.7898 288.303 73.8196C288.119 73.8452 287.953 73.8686 287.804 73.8899C287.484 73.9368 287.205 74.0114 286.967 74.1136C286.728 74.2159 286.543 74.3544 286.411 74.5291C286.278 74.6996 286.212 74.9126 286.212 75.1683C286.212 75.5391 286.347 75.8224 286.615 76.0185C286.888 76.2102 287.233 76.3061 287.651 76.3061ZM299.735 68.1818V70.2273H293.822V68.1818H299.735ZM295.164 65.8295H297.887V74.983C297.887 75.2344 297.926 75.4304 298.002 75.571C298.079 75.7074 298.186 75.8033 298.322 75.8587C298.463 75.9141 298.625 75.9418 298.808 75.9418C298.936 75.9418 299.064 75.9311 299.191 75.9098C299.319 75.8842 299.417 75.8651 299.485 75.8523L299.914 77.8786C299.777 77.9212 299.586 77.9702 299.338 78.0256C299.091 78.0852 298.791 78.1214 298.437 78.1342C297.781 78.1598 297.206 78.0724 296.711 77.8722C296.221 77.6719 295.84 77.3608 295.567 76.9389C295.294 76.517 295.16 75.9844 295.164 75.3409V65.8295ZM301.509 78V68.1818H304.232V78H301.509ZM302.876 66.9162C302.472 66.9162 302.124 66.782 301.835 66.5135C301.549 66.2408 301.406 65.9148 301.406 65.5355C301.406 65.1605 301.549 64.8388 301.835 64.5703C302.124 64.2976 302.472 64.1612 302.876 64.1612C303.281 64.1612 303.626 64.2976 303.912 64.5703C304.202 64.8388 304.347 65.1605 304.347 65.5355C304.347 65.9148 304.202 66.2408 303.912 66.5135C303.626 66.782 303.281 66.9162 302.876 66.9162ZM310.849 78.1918C309.856 78.1918 308.997 77.9808 308.273 77.5589C307.553 77.1328 306.997 76.5405 306.605 75.782C306.213 75.0192 306.017 74.1349 306.017 73.1293C306.017 72.1151 306.213 71.2287 306.605 70.4702C306.997 69.7074 307.553 69.1151 308.273 68.6932C308.997 68.267 309.856 68.054 310.849 68.054C311.842 68.054 312.698 68.267 313.419 68.6932C314.143 69.1151 314.701 69.7074 315.093 70.4702C315.485 71.2287 315.681 72.1151 315.681 73.1293C315.681 74.1349 315.485 75.0192 315.093 75.782C314.701 76.5405 314.143 77.1328 313.419 77.5589C312.698 77.9808 311.842 78.1918 310.849 78.1918ZM310.862 76.0824C311.313 76.0824 311.691 75.9545 311.993 75.6989C312.296 75.4389 312.524 75.0852 312.677 74.6378C312.835 74.1903 312.914 73.6811 312.914 73.1101C312.914 72.5391 312.835 72.0298 312.677 71.5824C312.524 71.1349 312.296 70.7812 311.993 70.5213C311.691 70.2614 311.313 70.1314 310.862 70.1314C310.406 70.1314 310.022 70.2614 309.711 70.5213C309.404 70.7812 309.172 71.1349 309.014 71.5824C308.861 72.0298 308.784 72.5391 308.784 73.1101C308.784 73.6811 308.861 74.1903 309.014 74.6378C309.172 75.0852 309.404 75.4389 309.711 75.6989C310.022 75.9545 310.406 76.0824 310.862 76.0824ZM320.175 72.3239V78H317.452V68.1818H320.047V69.9141H320.162C320.379 69.343 320.744 68.8913 321.255 68.5589C321.767 68.2223 322.387 68.054 323.115 68.054C323.797 68.054 324.392 68.2031 324.899 68.5014C325.406 68.7997 325.8 69.2259 326.081 69.7798C326.362 70.3295 326.503 70.9858 326.503 71.7486V78H323.78V72.2344C323.784 71.6335 323.631 71.1648 323.32 70.8281C323.009 70.4872 322.58 70.3168 322.035 70.3168C321.669 70.3168 321.345 70.3956 321.063 70.5533C320.786 70.7109 320.569 70.9411 320.411 71.2436C320.258 71.5419 320.179 71.902 320.175 72.3239ZM334.21 78V64.9091H335.719V69.7415H335.847C335.957 69.571 336.111 69.3537 336.307 69.0895C336.507 68.821 336.793 68.5824 337.163 68.3736C337.538 68.1605 338.045 68.054 338.685 68.054C339.511 68.054 340.24 68.2607 340.871 68.674C341.501 69.0874 341.994 69.6733 342.347 70.4318C342.701 71.1903 342.878 72.0852 342.878 73.1165C342.878 74.1562 342.701 75.0575 342.347 75.8203C341.994 76.5788 341.504 77.1669 340.877 77.5845C340.251 77.9979 339.528 78.2045 338.71 78.2045C338.08 78.2045 337.575 78.1001 337.195 77.8913C336.816 77.6783 336.524 77.4375 336.32 77.169C336.115 76.8963 335.957 76.6705 335.847 76.4915H335.668V78H334.21ZM335.693 73.0909C335.693 73.8324 335.802 74.4865 336.019 75.0533C336.237 75.6158 336.554 76.0568 336.972 76.3764C337.389 76.6918 337.901 76.8494 338.506 76.8494C339.136 76.8494 339.663 76.6832 340.085 76.3509C340.511 76.0142 340.83 75.5625 341.043 74.9957C341.261 74.4247 341.369 73.7898 341.369 73.0909C341.369 72.4006 341.263 71.7784 341.05 71.2244C340.841 70.6662 340.523 70.2251 340.097 69.9013C339.675 69.5732 339.145 69.4091 338.506 69.4091C337.892 69.4091 337.376 69.5646 336.959 69.8757C336.541 70.1825 336.226 70.6129 336.013 71.1669C335.8 71.7166 335.693 72.358 335.693 73.0909ZM351.373 73.9858V68.1818H352.881V78H351.373V76.3381H351.271C351.04 76.8366 350.683 77.2607 350.197 77.6101C349.711 77.9553 349.097 78.1278 348.356 78.1278C347.742 78.1278 347.197 77.9936 346.719 77.7251C346.242 77.4524 345.867 77.0433 345.594 76.4979C345.322 75.9482 345.185 75.2557 345.185 74.4205V68.1818H346.694V74.3182C346.694 75.0341 346.894 75.6051 347.295 76.0312C347.7 76.4574 348.215 76.6705 348.842 76.6705C349.217 76.6705 349.598 76.5746 349.986 76.3828C350.378 76.1911 350.706 75.897 350.97 75.5007C351.239 75.1044 351.373 74.5994 351.373 73.9858ZM359.914 68.1818V69.4602H354.826V68.1818H359.914ZM356.309 65.8295H357.818V75.1875C357.818 75.6136 357.879 75.9332 358.003 76.1463C358.131 76.3551 358.293 76.4957 358.489 76.5682C358.689 76.6364 358.9 76.6705 359.122 76.6705C359.288 76.6705 359.424 76.6619 359.531 76.6449C359.637 76.6236 359.722 76.6065 359.786 76.5938L360.093 77.9489C359.991 77.9872 359.848 78.0256 359.665 78.0639C359.482 78.1065 359.249 78.1278 358.968 78.1278C358.542 78.1278 358.124 78.0362 357.715 77.853C357.311 77.6697 356.974 77.3906 356.705 77.0156C356.441 76.6406 356.309 76.1676 356.309 75.5966V65.8295ZM366.453 68.1818V69.4602H361.365V68.1818H366.453ZM362.848 65.8295H364.357V75.1875C364.357 75.6136 364.419 75.9332 364.542 76.1463C364.67 76.3551 364.832 76.4957 365.028 76.5682C365.228 76.6364 365.439 76.6705 365.661 76.6705C365.827 76.6705 365.963 76.6619 366.07 76.6449C366.176 76.6236 366.262 76.6065 366.325 76.5938L366.632 77.9489C366.53 77.9872 366.387 78.0256 366.204 78.0639C366.021 78.1065 365.789 78.1278 365.507 78.1278C365.081 78.1278 364.664 78.0362 364.254 77.853C363.85 77.6697 363.513 77.3906 363.244 77.0156C362.98 76.6406 362.848 76.1676 362.848 75.5966V65.8295ZM372.606 78.2045C371.719 78.2045 370.942 77.9936 370.273 77.5717C369.608 77.1499 369.088 76.5597 368.713 75.8011C368.342 75.0426 368.157 74.1562 368.157 73.142C368.157 72.1193 368.342 71.2266 368.713 70.4638C369.088 69.701 369.608 69.1087 370.273 68.6868C370.942 68.2649 371.719 68.054 372.606 68.054C373.492 68.054 374.268 68.2649 374.932 68.6868C375.601 69.1087 376.121 69.701 376.492 70.4638C376.867 71.2266 377.055 72.1193 377.055 73.142C377.055 74.1562 376.867 75.0426 376.492 75.8011C376.121 76.5597 375.601 77.1499 374.932 77.5717C374.268 77.9936 373.492 78.2045 372.606 78.2045ZM372.606 76.8494C373.279 76.8494 373.833 76.6768 374.268 76.3317C374.702 75.9865 375.024 75.5327 375.233 74.9702C375.442 74.4077 375.546 73.7983 375.546 73.142C375.546 72.4858 375.442 71.8743 375.233 71.3075C375.024 70.7408 374.702 70.2827 374.268 69.9332C373.833 69.5838 373.279 69.4091 372.606 69.4091C371.932 69.4091 371.378 69.5838 370.944 69.9332C370.509 70.2827 370.187 70.7408 369.979 71.3075C369.77 71.8743 369.665 72.4858 369.665 73.142C369.665 73.7983 369.77 74.4077 369.979 74.9702C370.187 75.5327 370.509 75.9865 370.944 76.3317C371.378 76.6768 371.932 76.8494 372.606 76.8494ZM380.866 72.0938V78H379.357V68.1818H380.815V69.7159H380.942C381.173 69.2173 381.522 68.8168 381.991 68.5142C382.46 68.2074 383.065 68.054 383.806 68.054C384.471 68.054 385.053 68.1903 385.551 68.4631C386.05 68.7315 386.438 69.1406 386.714 69.6903C386.991 70.2358 387.13 70.9261 387.13 71.7614V78H385.621V71.8636C385.621 71.0923 385.421 70.4915 385.021 70.0611C384.62 69.6264 384.07 69.4091 383.371 69.4091C382.89 69.4091 382.46 69.5135 382.08 69.7223C381.705 69.9311 381.409 70.2358 381.192 70.6364C380.974 71.0369 380.866 71.5227 380.866 72.0938Z" fill="white"></path>
    <path id="icon" fill-rule="evenodd" clip-rule="evenodd" d="M395.999 45.5844L389.057 52.5287L388 51.4722L395.999 43.4714L404 51.4722L402.943 52.5287L395.999 45.5844Z" fill="white" anim:opacity="0[0:0.5:1:ease-in-out][0.8:1.3:0:ease-in-out]" anim:x="-20[0:0.5:0:ease-out]" anim:y="0[0:1:-25:ease-in-out]" anim:rotation="90[0:1:0:ease-out]"></path>
  </g>
</svg>