<svg viewBox="0 0 420 256" fill="none" xmlns="http://www.w3.org/2000/svg" xmlns:anim="http://www.w3.org/2000/anim" anim="" anim:transform-origin="50% 50%" anim:duration="2.5" anim:ease="ease-in-out">
  <g id="tutorial-03">
    <circle id="circle" cx="128" cy="128" r="80" fill="#292E37"></circle>
    <path id="G" d="M182.006 120.659C181.748 119.704 181.369 118.864 180.869 118.136C180.369 117.394 179.756 116.765 179.028 116.25C178.301 115.735 177.468 115.348 176.528 115.091C175.589 114.818 174.559 114.682 173.437 114.682C171.18 114.682 169.225 115.227 167.574 116.318C165.937 117.409 164.672 119 163.778 121.091C162.884 123.167 162.437 125.689 162.437 128.659C162.437 131.644 162.869 134.189 163.733 136.295C164.597 138.401 165.847 140.008 167.483 141.114C169.119 142.22 171.104 142.773 173.437 142.773C175.498 142.773 177.241 142.439 178.665 141.773C180.104 141.091 181.195 140.129 181.937 138.886C182.68 137.644 183.051 136.182 183.051 134.5L185.142 134.75H173.824V126.545H193.892V132.704C193.892 136.871 193.006 140.439 191.233 143.409C189.475 146.379 187.051 148.659 183.96 150.25C180.884 151.841 177.347 152.636 173.347 152.636C168.907 152.636 165.006 151.674 161.642 149.75C158.278 147.826 155.657 145.083 153.778 141.523C151.9 137.947 150.96 133.704 150.96 128.795C150.96 124.977 151.528 121.591 152.665 118.636C153.801 115.667 155.384 113.151 157.415 111.091C159.46 109.03 161.824 107.47 164.506 106.409C167.203 105.348 170.104 104.818 173.21 104.818C175.907 104.818 178.415 105.204 180.733 105.977C183.066 106.75 185.127 107.841 186.915 109.25C188.718 110.659 190.18 112.333 191.301 114.273C192.422 116.212 193.119 118.341 193.392 120.659H182.006Z" fill="#A2A5AF"></path>
    <g id="selection" anim:opacity="0[0.5:1:1:ease-in-out][2:2.5:0:ease-in-out]">
      <rect id="frame" x="60" y="104" width="40" height="49.5" stroke="#0C8CE9" stroke-width="2"></rect>
      <rect id="Rectangle 5" x="57" y="101" width="7" height="7" fill="white" stroke="#0C8CE9" stroke-width="2"></rect>
      <rect id="Rectangle 6" x="96" y="101" width="7" height="7" fill="white" stroke="#0C8CE9" stroke-width="2"></rect>
      <rect id="Rectangle 7" x="96" y="149" width="7" height="7" fill="white" stroke="#0C8CE9" stroke-width="2"></rect>
      <rect id="Rectangle 8" x="57" y="149" width="7" height="7" fill="white" stroke="#0C8CE9" stroke-width="2"></rect>
    </g>
    <path id="V" d="M115.403 105.455L125.812 139.546H126.199L136.608 105.455H149.199L133.494 152H118.517L102.812 105.455H115.403Z" fill="#A2A5AF"></path>
    <path id="S" d="M87.6816 119.409C87.5301 117.742 86.8559 116.447 85.6589 115.523C84.4771 114.583 82.7877 114.114 80.5907 114.114C79.1362 114.114 77.9241 114.303 76.9544 114.682C75.9847 115.061 75.2574 115.583 74.7726 116.25C74.2877 116.901 74.0377 117.651 74.0226 118.5C73.9922 119.197 74.1286 119.811 74.4316 120.341C74.7498 120.871 75.2044 121.341 75.7953 121.75C76.4013 122.144 77.1286 122.492 77.9771 122.795C78.8256 123.098 79.7801 123.364 80.8407 123.591L84.8407 124.5C87.1438 125 89.1741 125.667 90.9316 126.5C92.7044 127.333 94.1892 128.326 95.3862 129.477C96.5983 130.629 97.515 131.954 98.1362 133.454C98.7574 134.954 99.0756 136.636 99.0907 138.5C99.0756 141.439 98.3332 143.962 96.8635 146.068C95.3938 148.174 93.2801 149.788 90.5226 150.909C87.7801 152.03 84.4695 152.591 80.5907 152.591C76.6968 152.591 73.3029 152.008 70.4089 150.841C67.515 149.674 65.265 147.901 63.6589 145.523C62.0529 143.144 61.2271 140.136 61.1816 136.5H71.9544C72.0453 138 72.4468 139.25 73.1589 140.25C73.871 141.25 74.8483 142.008 76.0907 142.523C77.3483 143.038 78.8029 143.295 80.4544 143.295C81.9695 143.295 83.2574 143.091 84.318 142.682C85.3938 142.273 86.2195 141.704 86.7953 140.977C87.371 140.25 87.6665 139.417 87.6816 138.477C87.6665 137.598 87.3938 136.848 86.8635 136.227C86.3332 135.591 85.515 135.045 84.4089 134.591C83.318 134.121 81.9241 133.689 80.2271 133.295L75.3635 132.159C71.3332 131.235 68.1589 129.742 65.8407 127.682C63.5225 125.606 62.371 122.803 62.3862 119.273C62.371 116.394 63.1438 113.871 64.7044 111.704C66.265 109.538 68.4241 107.848 71.1816 106.636C73.9392 105.424 77.0832 104.818 80.6135 104.818C84.2195 104.818 87.3483 105.432 89.9998 106.659C92.6665 107.871 94.7347 109.576 96.2044 111.773C97.6741 113.97 98.4241 116.515 98.4544 119.409H87.6816Z" fill="#A2A5AF"></path>
    <path id="Title BG" d="M39.0568 33V24.2727H44.2898V25.2102H40.1136V28.1591H43.8977V29.0966H40.1136V33H39.0568ZM45.8931 33V26.4545H46.8647V27.4432H46.9329C47.0522 27.1193 47.2681 26.8565 47.5806 26.6548C47.8931 26.4531 48.2454 26.3523 48.6374 26.3523C48.7113 26.3523 48.8036 26.3537 48.9144 26.3565C49.0252 26.3594 49.109 26.3636 49.1658 26.3693V27.392C49.1317 27.3835 49.0536 27.3707 48.9315 27.3537C48.8121 27.3338 48.6857 27.3239 48.5522 27.3239C48.234 27.3239 47.9499 27.3906 47.6999 27.5241C47.4528 27.6548 47.2567 27.8366 47.1119 28.0696C46.9698 28.2997 46.8988 28.5625 46.8988 28.858V33H45.8931ZM52.2841 33.1534C51.8693 33.1534 51.4929 33.0753 51.1548 32.919C50.8168 32.7599 50.5483 32.5312 50.3494 32.233C50.1506 31.9318 50.0511 31.5682 50.0511 31.142C50.0511 30.767 50.125 30.4631 50.2727 30.2301C50.4205 29.9943 50.6179 29.8097 50.8651 29.6761C51.1122 29.5426 51.3849 29.4432 51.6832 29.3778C51.9844 29.3097 52.2869 29.2557 52.5909 29.2159C52.9886 29.1648 53.3111 29.1264 53.5582 29.1009C53.8082 29.0724 53.9901 29.0256 54.1037 28.9602C54.2202 28.8949 54.2784 28.7812 54.2784 28.6193V28.5852C54.2784 28.1648 54.1634 27.8381 53.9332 27.6051C53.706 27.3722 53.3608 27.2557 52.8977 27.2557C52.4176 27.2557 52.0412 27.3608 51.7685 27.571C51.4957 27.7812 51.304 28.0057 51.1932 28.2443L50.2386 27.9034C50.4091 27.5057 50.6364 27.196 50.9205 26.9744C51.2074 26.75 51.5199 26.5937 51.858 26.5057C52.1989 26.4148 52.5341 26.3693 52.8636 26.3693C53.0739 26.3693 53.3153 26.3949 53.5881 26.446C53.8636 26.4943 54.1293 26.5952 54.3849 26.7486C54.6435 26.902 54.858 27.1335 55.0284 27.4432C55.1989 27.7528 55.2841 28.1676 55.2841 28.6875V33H54.2784V32.1136H54.2273C54.1591 32.2557 54.0455 32.4077 53.8864 32.5696C53.7273 32.7315 53.5156 32.8693 53.2514 32.983C52.9872 33.0966 52.6648 33.1534 52.2841 33.1534ZM52.4375 32.25C52.8352 32.25 53.1705 32.1719 53.4432 32.0156C53.7188 31.8594 53.9261 31.6577 54.0653 31.4105C54.2074 31.1634 54.2784 30.9034 54.2784 30.6307V29.7102C54.2358 29.7614 54.142 29.8082 53.9972 29.8509C53.8551 29.8906 53.6903 29.9261 53.5028 29.9574C53.3182 29.9858 53.1378 30.0114 52.9616 30.0341C52.7884 30.054 52.6477 30.071 52.5398 30.0852C52.2784 30.1193 52.0341 30.1747 51.8068 30.2514C51.5824 30.3253 51.4006 30.4375 51.2614 30.5881C51.125 30.7358 51.0568 30.9375 51.0568 31.1932C51.0568 31.5426 51.1861 31.8068 51.4446 31.9858C51.706 32.1619 52.0369 32.25 52.4375 32.25ZM57.1197 33V26.4545H58.0913V27.4773H58.1765C58.3129 27.1278 58.533 26.8565 58.837 26.6634C59.141 26.4673 59.506 26.3693 59.9322 26.3693C60.364 26.3693 60.7234 26.4673 61.0103 26.6634C61.3001 26.8565 61.5259 27.1278 61.6879 27.4773H61.756C61.9237 27.1392 62.1751 26.8707 62.5103 26.6719C62.8455 26.4702 63.2475 26.3693 63.7163 26.3693C64.3015 26.3693 64.7802 26.5526 65.1523 26.919C65.5245 27.2827 65.7106 27.8494 65.7106 28.6193V33H64.7049V28.6193C64.7049 28.1364 64.5728 27.7912 64.3086 27.5838C64.0444 27.3764 63.7333 27.2727 63.3754 27.2727C62.9151 27.2727 62.5586 27.4119 62.3058 27.6903C62.0529 27.9659 61.9265 28.3153 61.9265 28.7386V33H60.9038V28.517C60.9038 28.1449 60.783 27.8452 60.5415 27.6179C60.3001 27.3878 59.989 27.2727 59.6083 27.2727C59.3469 27.2727 59.1026 27.3423 58.8754 27.4815C58.6509 27.6207 58.4691 27.8139 58.3299 28.0611C58.1935 28.3054 58.1254 28.5881 58.1254 28.9091V33H57.1197ZM70.2937 33.1364C69.663 33.1364 69.119 32.9972 68.6616 32.7188C68.207 32.4375 67.8562 32.0455 67.609 31.5426C67.3647 31.0369 67.2425 30.4489 67.2425 29.7784C67.2425 29.108 67.3647 28.517 67.609 28.0057C67.8562 27.4915 68.1999 27.0909 68.6403 26.804C69.0835 26.5142 69.6005 26.3693 70.1914 26.3693C70.5323 26.3693 70.869 26.4261 71.2013 26.5398C71.5337 26.6534 71.8363 26.8381 72.109 27.0938C72.3817 27.3466 72.5991 27.6818 72.761 28.0994C72.9229 28.517 73.0039 29.0312 73.0039 29.642V30.0682H67.9585V29.1989H71.9812C71.9812 28.8295 71.9073 28.5 71.7596 28.2102C71.6147 27.9205 71.4073 27.6918 71.1374 27.5241C70.8704 27.3565 70.555 27.2727 70.1914 27.2727C69.7908 27.2727 69.4442 27.3722 69.1516 27.571C68.8619 27.767 68.6388 28.0227 68.4826 28.3381C68.3263 28.6534 68.2482 28.9915 68.2482 29.3523V29.9318C68.2482 30.4261 68.3335 30.8452 68.5039 31.1889C68.6772 31.5298 68.9173 31.7898 69.2241 31.9688C69.5309 32.1449 69.8874 32.233 70.2937 32.233C70.5579 32.233 70.7965 32.196 71.0096 32.1222C71.2255 32.0455 71.4116 31.9318 71.5678 31.7812C71.7241 31.6278 71.8448 31.4375 71.93 31.2102L72.9016 31.483C72.7994 31.8125 72.6275 32.1023 72.386 32.3523C72.1445 32.5994 71.8462 32.7926 71.4911 32.9318C71.136 33.0682 70.7369 33.1364 70.2937 33.1364Z" fill="#A2A5AF"></path>
    <path id="Select an element within the frame to start animating" d="M245.744 46.1818C245.668 45.5341 245.357 45.0312 244.811 44.6733C244.266 44.3153 243.597 44.1364 242.804 44.1364C242.224 44.1364 241.717 44.2301 241.283 44.4176C240.852 44.6051 240.516 44.8629 240.273 45.1911C240.034 45.5192 239.915 45.892 239.915 46.3097C239.915 46.6591 239.998 46.9595 240.164 47.2109C240.335 47.4581 240.552 47.6648 240.816 47.831C241.08 47.9929 241.357 48.1271 241.647 48.2337C241.937 48.3359 242.203 48.419 242.446 48.483L243.776 48.8409C244.116 48.9304 244.496 49.054 244.913 49.2116C245.335 49.3693 245.738 49.5845 246.121 49.8572C246.509 50.1257 246.829 50.4709 247.08 50.8928C247.332 51.3146 247.457 51.8324 247.457 52.446C247.457 53.1534 247.272 53.7926 246.901 54.3636C246.535 54.9347 245.998 55.3885 245.29 55.7251C244.587 56.0618 243.733 56.2301 242.727 56.2301C241.79 56.2301 240.978 56.0788 240.292 55.7763C239.61 55.4737 239.073 55.0518 238.681 54.5107C238.293 53.9695 238.074 53.3409 238.023 52.625H239.659C239.702 53.1193 239.868 53.5284 240.158 53.8523C240.452 54.1719 240.822 54.4105 241.27 54.5682C241.722 54.7216 242.207 54.7983 242.727 54.7983C243.332 54.7983 243.876 54.7003 244.357 54.5043C244.839 54.304 245.22 54.027 245.501 53.6733C245.783 53.3153 245.923 52.8977 245.923 52.4205C245.923 51.9858 245.802 51.6321 245.559 51.3594C245.316 51.0866 244.996 50.8651 244.6 50.6946C244.204 50.5241 243.776 50.375 243.315 50.2472L241.705 49.7869C240.682 49.4929 239.872 49.0732 239.276 48.5277C238.679 47.9822 238.381 47.2685 238.381 46.3864C238.381 45.6534 238.579 45.0142 238.975 44.4688C239.376 43.919 239.913 43.4929 240.586 43.1903C241.263 42.8835 242.02 42.7301 242.855 42.7301C243.699 42.7301 244.449 42.8814 245.105 43.1839C245.761 43.4822 246.281 43.8913 246.665 44.4112C247.053 44.9311 247.257 45.5213 247.278 46.1818H245.744ZM253.976 56.2045C253.03 56.2045 252.214 55.9957 251.528 55.5781C250.846 55.1562 250.319 54.5682 249.949 53.8139C249.582 53.0554 249.399 52.1733 249.399 51.1676C249.399 50.1619 249.582 49.2756 249.949 48.5085C250.319 47.7372 250.835 47.1364 251.496 46.706C252.16 46.2713 252.936 46.054 253.822 46.054C254.334 46.054 254.839 46.1392 255.337 46.3097C255.836 46.4801 256.29 46.7571 256.699 47.1406C257.108 47.5199 257.434 48.0227 257.677 48.6491C257.92 49.2756 258.041 50.0469 258.041 50.9631V51.6023H250.473V50.2983H256.507C256.507 49.7443 256.396 49.25 256.175 48.8153C255.957 48.3807 255.646 48.0376 255.241 47.7862C254.841 47.5348 254.368 47.4091 253.822 47.4091C253.221 47.4091 252.702 47.5582 252.263 47.8565C251.828 48.1506 251.493 48.5341 251.259 49.0071C251.025 49.4801 250.907 49.9872 250.907 50.5284V51.3977C250.907 52.1392 251.035 52.7678 251.291 53.2834C251.551 53.7947 251.911 54.1847 252.371 54.4531C252.831 54.7173 253.366 54.8494 253.976 54.8494C254.372 54.8494 254.73 54.794 255.05 54.6832C255.373 54.5682 255.653 54.3977 255.887 54.1719C256.121 53.9418 256.302 53.6562 256.43 53.3153L257.888 53.7244C257.734 54.2188 257.476 54.6534 257.114 55.0284C256.752 55.3991 256.305 55.6889 255.772 55.8977C255.239 56.1023 254.64 56.2045 253.976 56.2045ZM261.844 42.9091V56H260.336V42.9091H261.844ZM268.724 56.2045C267.778 56.2045 266.962 55.9957 266.276 55.5781C265.594 55.1562 265.067 54.5682 264.697 53.8139C264.33 53.0554 264.147 52.1733 264.147 51.1676C264.147 50.1619 264.33 49.2756 264.697 48.5085C265.067 47.7372 265.583 47.1364 266.244 46.706C266.908 46.2713 267.684 46.054 268.57 46.054C269.082 46.054 269.587 46.1392 270.085 46.3097C270.584 46.4801 271.038 46.7571 271.447 47.1406C271.856 47.5199 272.182 48.0227 272.425 48.6491C272.668 49.2756 272.789 50.0469 272.789 50.9631V51.6023H265.221V50.2983H271.255C271.255 49.7443 271.144 49.25 270.923 48.8153C270.705 48.3807 270.394 48.0376 269.989 47.7862C269.589 47.5348 269.116 47.4091 268.57 47.4091C267.969 47.4091 267.45 47.5582 267.011 47.8565C266.576 48.1506 266.241 48.5341 266.007 49.0071C265.773 49.4801 265.656 49.9872 265.656 50.5284V51.3977C265.656 52.1392 265.783 52.7678 266.039 53.2834C266.299 53.7947 266.659 54.1847 267.119 54.4531C267.58 54.7173 268.114 54.8494 268.724 54.8494C269.12 54.8494 269.478 54.794 269.798 54.6832C270.121 54.5682 270.401 54.3977 270.635 54.1719C270.869 53.9418 271.05 53.6562 271.178 53.3153L272.636 53.7244C272.482 54.2188 272.224 54.6534 271.862 55.0284C271.5 55.3991 271.053 55.6889 270.52 55.8977C269.987 56.1023 269.388 56.2045 268.724 56.2045ZM279.072 56.2045C278.152 56.2045 277.359 55.9872 276.695 55.5526C276.03 55.1179 275.518 54.5192 275.161 53.7564C274.803 52.9936 274.624 52.1222 274.624 51.142C274.624 50.1449 274.807 49.2649 275.173 48.5021C275.544 47.7351 276.06 47.1364 276.72 46.706C277.385 46.2713 278.161 46.054 279.047 46.054C279.737 46.054 280.359 46.1818 280.913 46.4375C281.467 46.6932 281.921 47.0511 282.275 47.5114C282.629 47.9716 282.848 48.5085 282.933 49.1222H281.425C281.31 48.6747 281.054 48.2784 280.658 47.9332C280.266 47.5838 279.737 47.4091 279.072 47.4091C278.484 47.4091 277.969 47.5625 277.526 47.8693C277.087 48.1719 276.744 48.6001 276.496 49.1541C276.254 49.7038 276.132 50.3494 276.132 51.0909C276.132 51.8494 276.251 52.5099 276.49 53.0724C276.733 53.6349 277.074 54.0717 277.513 54.3828C277.956 54.6939 278.476 54.8494 279.072 54.8494C279.464 54.8494 279.82 54.7812 280.14 54.6449C280.46 54.5085 280.73 54.3125 280.952 54.0568C281.173 53.8011 281.331 53.4943 281.425 53.1364H282.933C282.848 53.7159 282.637 54.2379 282.3 54.7024C281.968 55.1626 281.527 55.5291 280.977 55.8018C280.432 56.0703 279.797 56.2045 279.072 56.2045ZM289.408 46.1818V47.4602H284.32V46.1818H289.408ZM285.803 43.8295H287.312V53.1875C287.312 53.6136 287.374 53.9332 287.497 54.1463C287.625 54.3551 287.787 54.4957 287.983 54.5682C288.183 54.6364 288.394 54.6705 288.616 54.6705C288.782 54.6705 288.918 54.6619 289.025 54.6449C289.131 54.6236 289.217 54.6065 289.281 54.5938L289.587 55.9489C289.485 55.9872 289.342 56.0256 289.159 56.0639C288.976 56.1065 288.744 56.1278 288.462 56.1278C288.036 56.1278 287.619 56.0362 287.21 55.853C286.805 55.6697 286.468 55.3906 286.2 55.0156C285.935 54.6406 285.803 54.1676 285.803 53.5966V43.8295ZM299.629 56.2301C299.007 56.2301 298.442 56.1129 297.935 55.8786C297.428 55.6399 297.026 55.2969 296.727 54.8494C296.429 54.3977 296.28 53.8523 296.28 53.2131C296.28 52.6506 296.391 52.1946 296.612 51.8452C296.834 51.4915 297.13 51.2145 297.501 51.0142C297.871 50.8139 298.281 50.6648 298.728 50.5668C299.18 50.4645 299.634 50.3835 300.089 50.3239C300.686 50.2472 301.17 50.1896 301.54 50.1513C301.915 50.1087 302.188 50.0384 302.359 49.9403C302.533 49.8423 302.621 49.6719 302.621 49.429V49.3778C302.621 48.7472 302.448 48.2571 302.103 47.9077C301.762 47.5582 301.244 47.3835 300.55 47.3835C299.83 47.3835 299.265 47.5412 298.856 47.8565C298.447 48.1719 298.159 48.5085 297.993 48.8665L296.561 48.3551C296.817 47.7585 297.158 47.294 297.584 46.9616C298.014 46.625 298.483 46.3906 298.99 46.2585C299.501 46.1222 300.004 46.054 300.499 46.054C300.814 46.054 301.176 46.0923 301.585 46.169C301.999 46.2415 302.397 46.3928 302.781 46.6229C303.168 46.853 303.49 47.2003 303.746 47.6648C304.001 48.1293 304.129 48.7514 304.129 49.5312V56H302.621V54.6705H302.544C302.442 54.8835 302.271 55.1115 302.033 55.3544C301.794 55.5973 301.477 55.804 301.08 55.9744C300.684 56.1449 300.2 56.2301 299.629 56.2301ZM299.859 54.875C300.456 54.875 300.959 54.7578 301.368 54.5234C301.781 54.2891 302.092 53.9865 302.301 53.6158C302.514 53.245 302.621 52.8551 302.621 52.446V51.0653C302.557 51.142 302.416 51.2124 302.199 51.2763C301.986 51.3359 301.739 51.3892 301.457 51.4361C301.18 51.4787 300.91 51.517 300.646 51.5511C300.386 51.581 300.175 51.6065 300.013 51.6278C299.621 51.679 299.254 51.7621 298.913 51.8771C298.577 51.9879 298.304 52.1562 298.095 52.3821C297.891 52.6037 297.788 52.9062 297.788 53.2898C297.788 53.8139 297.982 54.2102 298.37 54.4787C298.762 54.7429 299.259 54.875 299.859 54.875ZM308.391 50.0938V56H306.883V46.1818H308.34V47.7159H308.468C308.698 47.2173 309.047 46.8168 309.516 46.5142C309.985 46.2074 310.59 46.054 311.331 46.054C311.996 46.054 312.578 46.1903 313.077 46.4631C313.575 46.7315 313.963 47.1406 314.24 47.6903C314.517 48.2358 314.655 48.9261 314.655 49.7614V56H313.147V49.8636C313.147 49.0923 312.947 48.4915 312.546 48.0611C312.145 47.6264 311.596 47.4091 310.897 47.4091C310.415 47.4091 309.985 47.5135 309.606 47.7223C309.231 47.9311 308.934 48.2358 308.717 48.6364C308.5 49.0369 308.391 49.5227 308.391 50.0938ZM326.655 56.1918C325.645 56.1918 324.776 55.9872 324.047 55.5781C323.322 55.1648 322.764 54.581 322.372 53.8267C321.98 53.0682 321.784 52.1712 321.784 51.1357C321.784 50.1257 321.98 49.2393 322.372 48.4766C322.764 47.7138 323.316 47.1193 324.028 46.6932C324.744 46.267 325.583 46.054 326.546 46.054C327.194 46.054 327.797 46.1584 328.355 46.3672C328.918 46.5717 329.408 46.8807 329.825 47.294C330.247 47.7074 330.575 48.2273 330.81 48.8537C331.044 49.4759 331.161 50.2045 331.161 51.0398V51.7876H322.871V50.1001H328.598C328.598 49.7081 328.513 49.3608 328.342 49.0582C328.172 48.7557 327.935 48.5192 327.633 48.3487C327.335 48.174 326.987 48.0866 326.591 48.0866C326.178 48.0866 325.811 48.1825 325.491 48.3743C325.176 48.5618 324.929 48.8153 324.75 49.1349C324.571 49.4503 324.479 49.8018 324.475 50.1896V51.794C324.475 52.2798 324.565 52.6996 324.744 53.0533C324.927 53.407 325.185 53.6797 325.517 53.8714C325.849 54.0632 326.244 54.1591 326.7 54.1591C327.002 54.1591 327.279 54.1165 327.531 54.0312C327.782 53.946 327.997 53.8182 328.176 53.6477C328.355 53.4773 328.491 53.2685 328.585 53.0213L331.104 53.1875C330.976 53.7926 330.714 54.321 330.317 54.7727C329.925 55.2202 329.418 55.5696 328.796 55.821C328.178 56.0682 327.464 56.1918 326.655 56.1918ZM335.661 42.9091V56H332.938V42.9091H335.661ZM342.317 56.1918C341.307 56.1918 340.438 55.9872 339.709 55.5781C338.985 55.1648 338.426 54.581 338.034 53.8267C337.642 53.0682 337.446 52.1712 337.446 51.1357C337.446 50.1257 337.642 49.2393 338.034 48.4766C338.426 47.7138 338.978 47.1193 339.69 46.6932C340.406 46.267 341.245 46.054 342.208 46.054C342.856 46.054 343.459 46.1584 344.017 46.3672C344.58 46.5717 345.07 46.8807 345.487 47.294C345.909 47.7074 346.237 48.2273 346.472 48.8537C346.706 49.4759 346.823 50.2045 346.823 51.0398V51.7876H338.533V50.1001H344.26C344.26 49.7081 344.175 49.3608 344.004 49.0582C343.834 48.7557 343.597 48.5192 343.295 48.3487C342.997 48.174 342.649 48.0866 342.253 48.0866C341.84 48.0866 341.473 48.1825 341.154 48.3743C340.838 48.5618 340.591 48.8153 340.412 49.1349C340.233 49.4503 340.142 49.8018 340.137 50.1896V51.794C340.137 52.2798 340.227 52.6996 340.406 53.0533C340.589 53.407 340.847 53.6797 341.179 53.8714C341.512 54.0632 341.906 54.1591 342.362 54.1591C342.664 54.1591 342.941 54.1165 343.193 54.0312C343.444 53.946 343.659 53.8182 343.838 53.6477C344.017 53.4773 344.154 53.2685 344.247 53.0213L346.766 53.1875C346.638 53.7926 346.376 54.321 345.98 54.7727C345.588 55.2202 345.08 55.5696 344.458 55.821C343.84 56.0682 343.127 56.1918 342.317 56.1918ZM348.6 56V46.1818H351.195V47.9141H351.311C351.515 47.3388 351.856 46.8849 352.333 46.5526C352.811 46.2202 353.382 46.054 354.046 46.054C354.72 46.054 355.293 46.2223 355.766 46.5589C356.239 46.8913 356.554 47.343 356.712 47.9141H356.814C357.014 47.3516 357.377 46.902 357.901 46.5653C358.429 46.2244 359.053 46.054 359.774 46.054C360.69 46.054 361.433 46.3459 362.004 46.9297C362.58 47.5092 362.867 48.3317 362.867 49.397V56H360.151V49.9339C360.151 49.3885 360.006 48.9794 359.716 48.7067C359.426 48.4339 359.064 48.2976 358.629 48.2976C358.135 48.2976 357.749 48.4553 357.472 48.7706C357.195 49.0817 357.057 49.4929 357.057 50.0043V56H354.417V49.8764C354.417 49.3949 354.279 49.0114 354.002 48.7259C353.729 48.4403 353.369 48.2976 352.921 48.2976C352.619 48.2976 352.346 48.3743 352.103 48.5277C351.865 48.6768 351.675 48.8878 351.534 49.1605C351.394 49.429 351.323 49.7443 351.323 50.1065V56H348.6ZM369.493 56.1918C368.483 56.1918 367.613 55.9872 366.885 55.5781C366.16 55.1648 365.602 54.581 365.21 53.8267C364.818 53.0682 364.622 52.1712 364.622 51.1357C364.622 50.1257 364.818 49.2393 365.21 48.4766C365.602 47.7138 366.154 47.1193 366.866 46.6932C367.581 46.267 368.421 46.054 369.384 46.054C370.032 46.054 370.635 46.1584 371.193 46.3672C371.756 46.5717 372.246 46.8807 372.663 47.294C373.085 47.7074 373.413 48.2273 373.648 48.8537C373.882 49.4759 373.999 50.2045 373.999 51.0398V51.7876H365.709V50.1001H371.436C371.436 49.7081 371.351 49.3608 371.18 49.0582C371.01 48.7557 370.773 48.5192 370.471 48.3487C370.172 48.174 369.825 48.0866 369.429 48.0866C369.015 48.0866 368.649 48.1825 368.329 48.3743C368.014 48.5618 367.767 48.8153 367.588 49.1349C367.409 49.4503 367.317 49.8018 367.313 50.1896V51.794C367.313 52.2798 367.403 52.6996 367.581 53.0533C367.765 53.407 368.023 53.6797 368.355 53.8714C368.687 54.0632 369.081 54.1591 369.537 54.1591C369.84 54.1591 370.117 54.1165 370.368 54.0312C370.62 53.946 370.835 53.8182 371.014 53.6477C371.193 53.4773 371.329 53.2685 371.423 53.0213L373.942 53.1875C373.814 53.7926 373.552 54.321 373.155 54.7727C372.763 55.2202 372.256 55.5696 371.634 55.821C371.016 56.0682 370.302 56.1918 369.493 56.1918ZM378.499 50.3239V56H375.776V46.1818H378.371V47.9141H378.486C378.704 47.343 379.068 46.8913 379.579 46.5589C380.091 46.2223 380.711 46.054 381.439 46.054C382.121 46.054 382.716 46.2031 383.223 46.5014C383.73 46.7997 384.124 47.2259 384.405 47.7798C384.687 48.3295 384.827 48.9858 384.827 49.7486V56H382.104V50.2344C382.108 49.6335 381.955 49.1648 381.644 48.8281C381.333 48.4872 380.905 48.3168 380.359 48.3168C379.993 48.3168 379.669 48.3956 379.388 48.5533C379.111 48.7109 378.893 48.9411 378.736 49.2436C378.582 49.5419 378.503 49.902 378.499 50.3239ZM392.196 46.1818V48.2273H386.283V46.1818H392.196ZM387.625 43.8295H390.348V52.983C390.348 53.2344 390.387 53.4304 390.463 53.571C390.54 53.7074 390.647 53.8033 390.783 53.8587C390.924 53.9141 391.086 53.9418 391.269 53.9418C391.397 53.9418 391.525 53.9311 391.652 53.9098C391.78 53.8842 391.878 53.8651 391.946 53.8523L392.375 55.8786C392.238 55.9212 392.047 55.9702 391.799 56.0256C391.552 56.0852 391.252 56.1214 390.898 56.1342C390.242 56.1598 389.667 56.0724 389.172 55.8722C388.682 55.6719 388.301 55.3608 388.028 54.9389C387.755 54.517 387.621 53.9844 387.625 53.3409V43.8295ZM240.023 78L237.352 68.1818H240.107L241.628 74.7784H241.717L243.303 68.1818H246.006L247.617 74.7401H247.7L249.196 68.1818H251.945L249.279 78H246.396L244.709 71.8253H244.587L242.9 78H240.023ZM253.397 78V68.1818H256.12V78H253.397ZM254.765 66.9162C254.36 66.9162 254.013 66.782 253.723 66.5135C253.438 66.2408 253.295 65.9148 253.295 65.5355C253.295 65.1605 253.438 64.8388 253.723 64.5703C254.013 64.2976 254.36 64.1612 254.765 64.1612C255.17 64.1612 255.515 64.2976 255.801 64.5703C256.09 64.8388 256.235 65.1605 256.235 65.5355C256.235 65.9148 256.09 66.2408 255.801 66.5135C255.515 66.782 255.17 66.9162 254.765 66.9162ZM263.524 68.1818V70.2273H257.611V68.1818H263.524ZM258.953 65.8295H261.676V74.983C261.676 75.2344 261.715 75.4304 261.792 75.571C261.868 75.7074 261.975 75.8033 262.111 75.8587C262.252 75.9141 262.414 75.9418 262.597 75.9418C262.725 75.9418 262.853 75.9311 262.98 75.9098C263.108 75.8842 263.206 75.8651 263.275 75.8523L263.703 77.8786C263.566 77.9212 263.375 77.9702 263.127 78.0256C262.88 78.0852 262.58 78.1214 262.226 78.1342C261.57 78.1598 260.995 78.0724 260.5 77.8722C260.01 77.6719 259.629 77.3608 259.356 76.9389C259.083 76.517 258.949 75.9844 258.953 75.3409V65.8295ZM268.232 72.3239V78H265.509V64.9091H268.155V69.9141H268.27C268.491 69.3345 268.849 68.8807 269.344 68.5526C269.838 68.2202 270.458 68.054 271.204 68.054C271.886 68.054 272.48 68.2031 272.987 68.5014C273.499 68.7955 273.895 69.2195 274.176 69.7734C274.462 70.3232 274.602 70.9815 274.598 71.7486V78H271.875V72.2344C271.879 71.6293 271.726 71.1584 271.415 70.8217C271.108 70.4851 270.678 70.3168 270.124 70.3168C269.753 70.3168 269.425 70.3956 269.139 70.5533C268.858 70.7109 268.636 70.9411 268.474 71.2436C268.317 71.5419 268.236 71.902 268.232 72.3239ZM276.741 78V68.1818H279.464V78H276.741ZM278.109 66.9162C277.704 66.9162 277.357 66.782 277.067 66.5135C276.781 66.2408 276.639 65.9148 276.639 65.5355C276.639 65.1605 276.781 64.8388 277.067 64.5703C277.357 64.2976 277.704 64.1612 278.109 64.1612C278.514 64.1612 278.859 64.2976 279.144 64.5703C279.434 64.8388 279.579 65.1605 279.579 65.5355C279.579 65.9148 279.434 66.2408 279.144 66.5135C278.859 66.782 278.514 66.9162 278.109 66.9162ZM284.368 72.3239V78H281.645V68.1818H284.24V69.9141H284.355C284.573 69.343 284.937 68.8913 285.449 68.5589C285.96 68.2223 286.58 68.054 287.309 68.054C287.99 68.054 288.585 68.2031 289.092 68.5014C289.599 68.7997 289.993 69.2259 290.275 69.7798C290.556 70.3295 290.696 70.9858 290.696 71.7486V78H287.973V72.2344C287.978 71.6335 287.824 71.1648 287.513 70.8281C287.202 70.4872 286.774 70.3168 286.228 70.3168C285.862 70.3168 285.538 70.3956 285.257 70.5533C284.98 70.7109 284.762 70.9411 284.605 71.2436C284.451 71.5419 284.373 71.902 284.368 72.3239ZM302.469 68.1818V69.4602H297.381V68.1818H302.469ZM298.864 65.8295H300.372V75.1875C300.372 75.6136 300.434 75.9332 300.558 76.1463C300.686 76.3551 300.847 76.4957 301.044 76.5682C301.244 76.6364 301.455 76.6705 301.676 76.6705C301.843 76.6705 301.979 76.6619 302.085 76.6449C302.192 76.6236 302.277 76.6065 302.341 76.5938L302.648 77.9489C302.546 77.9872 302.403 78.0256 302.22 78.0639C302.036 78.1065 301.804 78.1278 301.523 78.1278C301.097 78.1278 300.679 78.0362 300.27 77.853C299.865 77.6697 299.529 77.3906 299.26 77.0156C298.996 76.6406 298.864 76.1676 298.864 75.5966V65.8295ZM306.458 72.0938V78H304.949V64.9091H306.458V69.7159H306.585C306.816 69.2088 307.161 68.8061 307.621 68.5078C308.085 68.2053 308.703 68.054 309.475 68.054C310.144 68.054 310.73 68.1882 311.232 68.4567C311.735 68.7209 312.125 69.1278 312.402 69.6776C312.683 70.223 312.824 70.9176 312.824 71.7614V78H311.316V71.8636C311.316 71.0838 311.113 70.4808 310.708 70.0547C310.308 69.6243 309.752 69.4091 309.04 69.4091C308.546 69.4091 308.102 69.5135 307.71 69.7223C307.323 69.9311 307.016 70.2358 306.79 70.6364C306.568 71.0369 306.458 71.5227 306.458 72.0938ZM319.7 78.2045C318.754 78.2045 317.938 77.9957 317.252 77.5781C316.57 77.1562 316.044 76.5682 315.673 75.8139C315.307 75.0554 315.124 74.1733 315.124 73.1676C315.124 72.1619 315.307 71.2756 315.673 70.5085C316.044 69.7372 316.56 69.1364 317.22 68.706C317.885 68.2713 318.661 68.054 319.547 68.054C320.058 68.054 320.563 68.1392 321.062 68.3097C321.56 68.4801 322.014 68.7571 322.423 69.1406C322.832 69.5199 323.158 70.0227 323.401 70.6491C323.644 71.2756 323.766 72.0469 323.766 72.9631V73.6023H316.197V72.2983H322.232C322.232 71.7443 322.121 71.25 321.899 70.8153C321.682 70.3807 321.371 70.0376 320.966 69.7862C320.565 69.5348 320.092 69.4091 319.547 69.4091C318.946 69.4091 318.426 69.5582 317.987 69.8565C317.553 70.1506 317.218 70.5341 316.984 71.0071C316.749 71.4801 316.632 71.9872 316.632 72.5284V73.3977C316.632 74.1392 316.76 74.7678 317.016 75.2834C317.276 75.7947 317.636 76.1847 318.096 76.4531C318.556 76.7173 319.091 76.8494 319.7 76.8494C320.097 76.8494 320.455 76.794 320.774 76.6832C321.098 76.5682 321.377 76.3977 321.612 76.1719C321.846 75.9418 322.027 75.6562 322.155 75.3153L323.612 75.7244C323.459 76.2188 323.201 76.6534 322.839 77.0284C322.477 77.3991 322.029 77.6889 321.496 77.8977C320.964 78.1023 320.365 78.2045 319.7 78.2045ZM335.495 68.1818V69.4602H330.202V68.1818H335.495ZM331.788 78V66.8267C331.788 66.2642 331.92 65.7955 332.184 65.4205C332.448 65.0455 332.791 64.7642 333.213 64.5767C333.635 64.3892 334.08 64.2955 334.549 64.2955C334.92 64.2955 335.222 64.3253 335.457 64.3849C335.691 64.4446 335.866 64.5 335.981 64.5511L335.546 65.8551C335.469 65.8295 335.363 65.7976 335.227 65.7592C335.094 65.7209 334.92 65.7017 334.702 65.7017C334.204 65.7017 333.844 65.8274 333.622 66.0788C333.405 66.3303 333.296 66.6989 333.296 67.1847V78H331.788ZM337.609 78V68.1818H339.067V69.6648H339.169C339.348 69.179 339.672 68.7848 340.14 68.4822C340.609 68.1797 341.138 68.0284 341.726 68.0284C341.836 68.0284 341.975 68.0305 342.141 68.0348C342.307 68.0391 342.433 68.0455 342.518 68.054V69.5881C342.467 69.5753 342.35 69.5561 342.167 69.5305C341.988 69.5007 341.798 69.4858 341.598 69.4858C341.121 69.4858 340.694 69.5859 340.319 69.7862C339.949 69.9822 339.655 70.255 339.437 70.6044C339.224 70.9496 339.118 71.3437 339.118 71.7869V78H337.609ZM347.196 78.2301C346.574 78.2301 346.009 78.1129 345.502 77.8786C344.995 77.6399 344.592 77.2969 344.294 76.8494C343.995 76.3977 343.846 75.8523 343.846 75.2131C343.846 74.6506 343.957 74.1946 344.179 73.8452C344.4 73.4915 344.696 73.2145 345.067 73.0142C345.438 72.8139 345.847 72.6648 346.294 72.5668C346.746 72.4645 347.2 72.3835 347.656 72.3239C348.252 72.2472 348.736 72.1896 349.107 72.1513C349.482 72.1087 349.755 72.0384 349.925 71.9403C350.1 71.8423 350.187 71.6719 350.187 71.429V71.3778C350.187 70.7472 350.015 70.2571 349.669 69.9077C349.328 69.5582 348.811 69.3835 348.116 69.3835C347.396 69.3835 346.831 69.5412 346.422 69.8565C346.013 70.1719 345.725 70.5085 345.559 70.8665L344.127 70.3551C344.383 69.7585 344.724 69.294 345.15 68.9616C345.581 68.625 346.049 68.3906 346.556 68.2585C347.068 68.1222 347.571 68.054 348.065 68.054C348.38 68.054 348.743 68.0923 349.152 68.169C349.565 68.2415 349.963 68.3928 350.347 68.6229C350.735 68.853 351.056 69.2003 351.312 69.6648C351.568 70.1293 351.696 70.7514 351.696 71.5312V78H350.187V76.6705H350.11C350.008 76.8835 349.838 77.1115 349.599 77.3544C349.36 77.5973 349.043 77.804 348.647 77.9744C348.25 78.1449 347.767 78.2301 347.196 78.2301ZM347.426 76.875C348.022 76.875 348.525 76.7578 348.934 76.5234C349.348 76.2891 349.659 75.9865 349.868 75.6158C350.081 75.245 350.187 74.8551 350.187 74.446V73.0653C350.123 73.142 349.983 73.2124 349.765 73.2763C349.552 73.3359 349.305 73.3892 349.024 73.4361C348.747 73.4787 348.476 73.517 348.212 73.5511C347.952 73.581 347.741 73.6065 347.579 73.6278C347.187 73.679 346.821 73.7621 346.48 73.8771C346.143 73.9879 345.87 74.1562 345.662 74.3821C345.457 74.6037 345.355 74.9062 345.355 75.2898C345.355 75.8139 345.549 76.2102 345.936 76.4787C346.328 76.7429 346.825 76.875 347.426 76.875ZM354.449 78V68.1818H355.906V69.7159H356.034C356.239 69.1918 356.569 68.7848 357.025 68.495C357.481 68.201 358.029 68.054 358.668 68.054C359.316 68.054 359.855 68.201 360.285 68.495C360.72 68.7848 361.058 69.1918 361.301 69.7159H361.404C361.655 69.2088 362.032 68.8061 362.535 68.5078C363.038 68.2053 363.641 68.054 364.344 68.054C365.222 68.054 365.94 68.3288 366.498 68.8786C367.056 69.424 367.335 70.2741 367.335 71.429V78H365.827V71.429C365.827 70.7045 365.629 70.1868 365.232 69.8757C364.836 69.5646 364.369 69.4091 363.833 69.4091C363.142 69.4091 362.607 69.6179 362.228 70.0355C361.849 70.4489 361.659 70.973 361.659 71.608V78H360.125V71.2756C360.125 70.7173 359.944 70.2678 359.582 69.9268C359.22 69.5817 358.753 69.4091 358.182 69.4091C357.79 69.4091 357.423 69.5135 357.083 69.7223C356.746 69.9311 356.473 70.2209 356.264 70.5916C356.06 70.9581 355.958 71.3821 355.958 71.8636V78H354.449ZM374.21 78.2045C373.264 78.2045 372.448 77.9957 371.762 77.5781C371.08 77.1562 370.554 76.5682 370.183 75.8139C369.817 75.0554 369.633 74.1733 369.633 73.1676C369.633 72.1619 369.817 71.2756 370.183 70.5085C370.554 69.7372 371.069 69.1364 371.73 68.706C372.395 68.2713 373.17 68.054 374.057 68.054C374.568 68.054 375.073 68.1392 375.572 68.3097C376.07 68.4801 376.524 68.7571 376.933 69.1406C377.342 69.5199 377.668 70.0227 377.911 70.6491C378.154 71.2756 378.275 72.0469 378.275 72.9631V73.6023H370.707V72.2983H376.741C376.741 71.7443 376.631 71.25 376.409 70.8153C376.192 70.3807 375.881 70.0376 375.476 69.7862C375.075 69.5348 374.602 69.4091 374.057 69.4091C373.456 69.4091 372.936 69.5582 372.497 69.8565C372.062 70.1506 371.728 70.5341 371.493 71.0071C371.259 71.4801 371.142 71.9872 371.142 72.5284V73.3977C371.142 74.1392 371.27 74.7678 371.525 75.2834C371.785 75.7947 372.145 76.1847 372.606 76.4531C373.066 76.7173 373.601 76.8494 374.21 76.8494C374.606 76.8494 374.964 76.794 375.284 76.6832C375.608 76.5682 375.887 76.3977 376.121 76.1719C376.356 75.9418 376.537 75.6562 376.665 75.3153L378.122 75.7244C377.969 76.2188 377.711 76.6534 377.349 77.0284C376.986 77.3991 376.539 77.6889 376.006 77.8977C375.474 78.1023 374.875 78.2045 374.21 78.2045ZM242.651 90.1818V91.4602H237.562V90.1818H242.651ZM239.045 87.8295H240.554V97.1875C240.554 97.6136 240.616 97.9332 240.739 98.1463C240.867 98.3551 241.029 98.4957 241.225 98.5682C241.425 98.6364 241.636 98.6705 241.858 98.6705C242.024 98.6705 242.161 98.6619 242.267 98.6449C242.374 98.6236 242.459 98.6065 242.523 98.5938L242.83 99.9489C242.727 99.9872 242.585 100.026 242.401 100.064C242.218 100.107 241.986 100.128 241.705 100.128C241.278 100.128 240.861 100.036 240.452 99.853C240.047 99.6697 239.71 99.3906 239.442 99.0156C239.178 98.6406 239.045 98.1676 239.045 97.5966V87.8295ZM248.803 100.205C247.917 100.205 247.139 99.9936 246.47 99.5717C245.805 99.1499 245.285 98.5597 244.91 97.8011C244.539 97.0426 244.354 96.1562 244.354 95.142C244.354 94.1193 244.539 93.2266 244.91 92.4638C245.285 91.701 245.805 91.1087 246.47 90.6868C247.139 90.2649 247.917 90.054 248.803 90.054C249.689 90.054 250.465 90.2649 251.13 90.6868C251.799 91.1087 252.319 91.701 252.689 92.4638C253.064 93.2266 253.252 94.1193 253.252 95.142C253.252 96.1562 253.064 97.0426 252.689 97.8011C252.319 98.5597 251.799 99.1499 251.13 99.5717C250.465 99.9936 249.689 100.205 248.803 100.205ZM248.803 98.8494C249.476 98.8494 250.03 98.6768 250.465 98.3317C250.9 97.9865 251.221 97.5327 251.43 96.9702C251.639 96.4077 251.743 95.7983 251.743 95.142C251.743 94.4858 251.639 93.8743 251.43 93.3075C251.221 92.7408 250.9 92.2827 250.465 91.9332C250.03 91.5838 249.476 91.4091 248.803 91.4091C248.13 91.4091 247.576 91.5838 247.141 91.9332C246.706 92.2827 246.385 92.7408 246.176 93.3075C245.967 93.8743 245.863 94.4858 245.863 95.142C245.863 95.7983 245.967 96.4077 246.176 96.9702C246.385 97.5327 246.706 97.9865 247.141 98.3317C247.576 98.6768 248.13 98.8494 248.803 98.8494ZM267.572 92.3807L266.216 92.7642C266.131 92.5384 266.006 92.3189 265.839 92.1058C265.677 91.8885 265.456 91.7095 265.175 91.5689C264.893 91.4283 264.533 91.358 264.094 91.358C263.493 91.358 262.993 91.4964 262.592 91.7734C262.196 92.0462 261.998 92.3935 261.998 92.8153C261.998 93.1903 262.134 93.4865 262.407 93.7038C262.68 93.9212 263.106 94.1023 263.685 94.2472L265.143 94.6051C266.02 94.8182 266.675 95.1442 267.105 95.5831C267.535 96.0178 267.751 96.5781 267.751 97.2642C267.751 97.8267 267.589 98.3295 267.265 98.7727C266.945 99.2159 266.498 99.5653 265.922 99.821C265.347 100.077 264.678 100.205 263.915 100.205C262.914 100.205 262.085 99.9872 261.429 99.5526C260.773 99.1179 260.357 98.483 260.182 97.6477L261.614 97.2898C261.751 97.8182 262.008 98.2145 262.388 98.4787C262.771 98.7429 263.272 98.875 263.89 98.875C264.593 98.875 265.151 98.7259 265.564 98.4276C265.982 98.125 266.191 97.7628 266.191 97.3409C266.191 97 266.072 96.7145 265.833 96.4844C265.594 96.25 265.228 96.0753 264.733 95.9602L263.097 95.5767C262.198 95.3636 261.537 95.0334 261.116 94.5859C260.698 94.1342 260.489 93.5696 260.489 92.892C260.489 92.3381 260.645 91.848 260.956 91.4219C261.271 90.9957 261.699 90.6612 262.241 90.4183C262.786 90.1754 263.404 90.054 264.094 90.054C265.066 90.054 265.829 90.267 266.383 90.6932C266.941 91.1193 267.337 91.6818 267.572 92.3807ZM274.291 90.1818V91.4602H269.203V90.1818H274.291ZM270.686 87.8295H272.195V97.1875C272.195 97.6136 272.256 97.9332 272.38 98.1463C272.508 98.3551 272.67 98.4957 272.866 98.5682C273.066 98.6364 273.277 98.6705 273.499 98.6705C273.665 98.6705 273.801 98.6619 273.908 98.6449C274.014 98.6236 274.099 98.6065 274.163 98.5938L274.47 99.9489C274.368 99.9872 274.225 100.026 274.042 100.064C273.859 100.107 273.626 100.128 273.345 100.128C272.919 100.128 272.501 100.036 272.092 99.853C271.688 99.6697 271.351 99.3906 271.082 99.0156C270.818 98.6406 270.686 98.1676 270.686 97.5966V87.8295ZM279.45 100.23C278.827 100.23 278.263 100.113 277.756 99.8786C277.249 99.6399 276.846 99.2969 276.548 98.8494C276.249 98.3977 276.1 97.8523 276.1 97.2131C276.1 96.6506 276.211 96.1946 276.433 95.8452C276.654 95.4915 276.95 95.2145 277.321 95.0142C277.692 94.8139 278.101 94.6648 278.548 94.5668C279 94.4645 279.454 94.3835 279.91 94.3239C280.506 94.2472 280.99 94.1896 281.361 94.1513C281.736 94.1087 282.009 94.0384 282.179 93.9403C282.354 93.8423 282.441 93.6719 282.441 93.429V93.3778C282.441 92.7472 282.268 92.2571 281.923 91.9077C281.582 91.5582 281.065 91.3835 280.37 91.3835C279.65 91.3835 279.085 91.5412 278.676 91.8565C278.267 92.1719 277.979 92.5085 277.813 92.8665L276.381 92.3551C276.637 91.7585 276.978 91.294 277.404 90.9616C277.835 90.625 278.303 90.3906 278.81 90.2585C279.322 90.1222 279.825 90.054 280.319 90.054C280.634 90.054 280.996 90.0923 281.406 90.169C281.819 90.2415 282.217 90.3928 282.601 90.6229C282.989 90.853 283.31 91.2003 283.566 91.6648C283.822 92.1293 283.95 92.7514 283.95 93.5312V100H282.441V98.6705H282.364C282.262 98.8835 282.092 99.1115 281.853 99.3544C281.614 99.5973 281.297 99.804 280.901 99.9744C280.504 100.145 280.021 100.23 279.45 100.23ZM279.68 98.875C280.276 98.875 280.779 98.7578 281.188 98.5234C281.602 98.2891 281.913 97.9865 282.121 97.6158C282.335 97.245 282.441 96.8551 282.441 96.446V95.0653C282.377 95.142 282.237 95.2124 282.019 95.2763C281.806 95.3359 281.559 95.3892 281.278 95.4361C281.001 95.4787 280.73 95.517 280.466 95.5511C280.206 95.581 279.995 95.6065 279.833 95.6278C279.441 95.679 279.075 95.7621 278.734 95.8771C278.397 95.9879 278.124 96.1562 277.915 96.3821C277.711 96.6037 277.609 96.9062 277.609 97.2898C277.609 97.8139 277.803 98.2102 278.19 98.4787C278.582 98.7429 279.079 98.875 279.68 98.875ZM286.703 100V90.1818H288.16V91.6648H288.263C288.442 91.179 288.765 90.7848 289.234 90.4822C289.703 90.1797 290.231 90.0284 290.819 90.0284C290.93 90.0284 291.069 90.0305 291.235 90.0348C291.401 90.0391 291.527 90.0455 291.612 90.054V91.5881C291.561 91.5753 291.444 91.5561 291.26 91.5305C291.081 91.5007 290.892 91.4858 290.692 91.4858C290.214 91.4858 289.788 91.5859 289.413 91.7862C289.042 91.9822 288.748 92.255 288.531 92.6044C288.318 92.9496 288.211 93.3437 288.211 93.7869V100H286.703ZM298.285 90.1818V91.4602H293.197V90.1818H298.285ZM294.68 87.8295H296.189V97.1875C296.189 97.6136 296.251 97.9332 296.374 98.1463C296.502 98.3551 296.664 98.4957 296.86 98.5682C297.06 98.6364 297.271 98.6705 297.493 98.6705C297.659 98.6705 297.795 98.6619 297.902 98.6449C298.008 98.6236 298.094 98.6065 298.157 98.5938L298.464 99.9489C298.362 99.9872 298.219 100.026 298.036 100.064C297.853 100.107 297.621 100.128 297.339 100.128C296.913 100.128 296.496 100.036 296.086 99.853C295.682 99.6697 295.345 99.3906 295.077 99.0156C294.812 98.6406 294.68 98.1676 294.68 97.5966V87.8295ZM308.506 100.23C307.884 100.23 307.319 100.113 306.812 99.8786C306.305 99.6399 305.903 99.2969 305.604 98.8494C305.306 98.3977 305.157 97.8523 305.157 97.2131C305.157 96.6506 305.268 96.1946 305.489 95.8452C305.711 95.4915 306.007 95.2145 306.378 95.0142C306.748 94.8139 307.157 94.6648 307.605 94.5668C308.057 94.4645 308.51 94.3835 308.966 94.3239C309.563 94.2472 310.047 94.1896 310.417 94.1513C310.792 94.1087 311.065 94.0384 311.236 93.9403C311.41 93.8423 311.498 93.6719 311.498 93.429V93.3778C311.498 92.7472 311.325 92.2571 310.98 91.9077C310.639 91.5582 310.121 91.3835 309.427 91.3835C308.706 91.3835 308.142 91.5412 307.733 91.8565C307.324 92.1719 307.036 92.5085 306.87 92.8665L305.438 92.3551C305.694 91.7585 306.035 91.294 306.461 90.9616C306.891 90.625 307.36 90.3906 307.867 90.2585C308.378 90.1222 308.881 90.054 309.376 90.054C309.691 90.054 310.053 90.0923 310.462 90.169C310.876 90.2415 311.274 90.3928 311.657 90.6229C312.045 90.853 312.367 91.2003 312.623 91.6648C312.878 92.1293 313.006 92.7514 313.006 93.5312V100H311.498V98.6705H311.421C311.319 98.8835 311.148 99.1115 310.91 99.3544C310.671 99.5973 310.354 99.804 309.957 99.9744C309.561 100.145 309.077 100.23 308.506 100.23ZM308.736 98.875C309.333 98.875 309.836 98.7578 310.245 98.5234C310.658 98.2891 310.969 97.9865 311.178 97.6158C311.391 97.245 311.498 96.8551 311.498 96.446V95.0653C311.434 95.142 311.293 95.2124 311.076 95.2763C310.863 95.3359 310.616 95.3892 310.334 95.4361C310.057 95.4787 309.787 95.517 309.523 95.5511C309.263 95.581 309.052 95.6065 308.89 95.6278C308.498 95.679 308.131 95.7621 307.79 95.8771C307.454 95.9879 307.181 96.1562 306.972 96.3821C306.768 96.6037 306.665 96.9062 306.665 97.2898C306.665 97.8139 306.859 98.2102 307.247 98.4787C307.639 98.7429 308.135 98.875 308.736 98.875ZM317.268 94.0938V100H315.76V90.1818H317.217V91.7159H317.345C317.575 91.2173 317.924 90.8168 318.393 90.5142C318.862 90.2074 319.467 90.054 320.208 90.054C320.873 90.054 321.455 90.1903 321.953 90.4631C322.452 90.7315 322.84 91.1406 323.117 91.6903C323.394 92.2358 323.532 92.9261 323.532 93.7614V100H322.024V93.8636C322.024 93.0923 321.824 92.4915 321.423 92.0611C321.022 91.6264 320.473 91.4091 319.774 91.4091C319.292 91.4091 318.862 91.5135 318.483 91.7223C318.108 91.9311 317.811 92.2358 317.594 92.6364C317.377 93.0369 317.268 93.5227 317.268 94.0938ZM326.289 100V90.1818H327.797V100H326.289ZM327.056 88.5455C326.762 88.5455 326.508 88.4453 326.295 88.245C326.086 88.0447 325.982 87.804 325.982 87.5227C325.982 87.2415 326.086 87.0007 326.295 86.8004C326.508 86.6001 326.762 86.5 327.056 86.5C327.35 86.5 327.601 86.6001 327.81 86.8004C328.023 87.0007 328.13 87.2415 328.13 87.5227C328.13 87.804 328.023 88.0447 327.81 88.245C327.601 88.4453 327.35 88.5455 327.056 88.5455ZM330.56 100V90.1818H332.018V91.7159H332.146C332.35 91.1918 332.68 90.7848 333.136 90.495C333.592 90.201 334.14 90.054 334.779 90.054C335.427 90.054 335.966 90.201 336.396 90.495C336.831 90.7848 337.17 91.1918 337.413 91.7159H337.515C337.766 91.2088 338.143 90.8061 338.646 90.5078C339.149 90.2053 339.752 90.054 340.455 90.054C341.333 90.054 342.051 90.3288 342.609 90.8786C343.168 91.424 343.447 92.2741 343.447 93.429V100H341.938V93.429C341.938 92.7045 341.74 92.1868 341.344 91.8757C340.947 91.5646 340.481 91.4091 339.944 91.4091C339.254 91.4091 338.719 91.6179 338.339 92.0355C337.96 92.4489 337.771 92.973 337.771 93.608V100H336.237V93.2756C336.237 92.7173 336.055 92.2678 335.693 91.9268C335.331 91.5817 334.864 91.4091 334.293 91.4091C333.901 91.4091 333.535 91.5135 333.194 91.7223C332.857 91.9311 332.585 92.2209 332.376 92.5916C332.171 92.9581 332.069 93.3821 332.069 93.8636V100H330.56ZM349.094 100.23C348.472 100.23 347.907 100.113 347.4 99.8786C346.893 99.6399 346.49 99.2969 346.192 98.8494C345.894 98.3977 345.745 97.8523 345.745 97.2131C345.745 96.6506 345.855 96.1946 346.077 95.8452C346.299 95.4915 346.595 95.2145 346.966 95.0142C347.336 94.8139 347.745 94.6648 348.193 94.5668C348.645 94.4645 349.098 94.3835 349.554 94.3239C350.151 94.2472 350.635 94.1896 351.005 94.1513C351.38 94.1087 351.653 94.0384 351.824 93.9403C351.998 93.8423 352.086 93.6719 352.086 93.429V93.3778C352.086 92.7472 351.913 92.2571 351.568 91.9077C351.227 91.5582 350.709 91.3835 350.015 91.3835C349.294 91.3835 348.73 91.5412 348.321 91.8565C347.912 92.1719 347.624 92.5085 347.458 92.8665L346.026 92.3551C346.282 91.7585 346.623 91.294 347.049 90.9616C347.479 90.625 347.948 90.3906 348.455 90.2585C348.966 90.1222 349.469 90.054 349.963 90.054C350.279 90.054 350.641 90.0923 351.05 90.169C351.463 90.2415 351.862 90.3928 352.245 90.6229C352.633 90.853 352.955 91.2003 353.211 91.6648C353.466 92.1293 353.594 92.7514 353.594 93.5312V100H352.086V98.6705H352.009C351.907 98.8835 351.736 99.1115 351.498 99.3544C351.259 99.5973 350.941 99.804 350.545 99.9744C350.149 100.145 349.665 100.23 349.094 100.23ZM349.324 98.875C349.921 98.875 350.424 98.7578 350.833 98.5234C351.246 98.2891 351.557 97.9865 351.766 97.6158C351.979 97.245 352.086 96.8551 352.086 96.446V95.0653C352.022 95.142 351.881 95.2124 351.664 95.2763C351.451 95.3359 351.203 95.3892 350.922 95.4361C350.645 95.4787 350.375 95.517 350.11 95.5511C349.85 95.581 349.64 95.6065 349.478 95.6278C349.086 95.679 348.719 95.7621 348.378 95.8771C348.042 95.9879 347.769 96.1562 347.56 96.3821C347.355 96.6037 347.253 96.9062 347.253 97.2898C347.253 97.8139 347.447 98.2102 347.835 98.4787C348.227 98.7429 348.723 98.875 349.324 98.875ZM360.617 90.1818V91.4602H355.529V90.1818H360.617ZM357.012 87.8295H358.521V97.1875C358.521 97.6136 358.583 97.9332 358.706 98.1463C358.834 98.3551 358.996 98.4957 359.192 98.5682C359.392 98.6364 359.603 98.6705 359.825 98.6705C359.991 98.6705 360.127 98.6619 360.234 98.6449C360.34 98.6236 360.426 98.6065 360.49 98.5938L360.796 99.9489C360.694 99.9872 360.551 100.026 360.368 100.064C360.185 100.107 359.953 100.128 359.671 100.128C359.245 100.128 358.828 100.036 358.419 99.853C358.014 99.6697 357.677 99.3906 357.409 99.0156C357.144 98.6406 357.012 98.1676 357.012 97.5966V87.8295ZM362.887 100V90.1818H364.395V100H362.887ZM363.654 88.5455C363.36 88.5455 363.106 88.4453 362.893 88.245C362.684 88.0447 362.58 87.804 362.58 87.5227C362.58 87.2415 362.684 87.0007 362.893 86.8004C363.106 86.6001 363.36 86.5 363.654 86.5C363.948 86.5 364.199 86.6001 364.408 86.8004C364.621 87.0007 364.727 87.2415 364.727 87.5227C364.727 87.804 364.621 88.0447 364.408 88.245C364.199 88.4453 363.948 88.5455 363.654 88.5455ZM368.667 94.0938V100H367.158V90.1818H368.615V91.7159H368.743C368.973 91.2173 369.323 90.8168 369.792 90.5142C370.26 90.2074 370.865 90.054 371.607 90.054C372.272 90.054 372.853 90.1903 373.352 90.4631C373.85 90.7315 374.238 91.1406 374.515 91.6903C374.792 92.2358 374.931 92.9261 374.931 93.7614V100H373.422V93.8636C373.422 93.0923 373.222 92.4915 372.821 92.0611C372.421 91.6264 371.871 91.4091 371.172 91.4091C370.691 91.4091 370.26 91.5135 369.881 91.7223C369.506 91.9311 369.21 92.2358 368.993 92.6364C368.775 93.0369 368.667 93.5227 368.667 94.0938ZM381.65 103.886C380.922 103.886 380.295 103.793 379.771 103.605C379.247 103.422 378.81 103.179 378.461 102.876C378.116 102.578 377.841 102.259 377.636 101.918L378.838 101.074C378.974 101.253 379.147 101.457 379.356 101.688C379.564 101.922 379.85 102.124 380.212 102.295C380.579 102.469 381.058 102.557 381.65 102.557C382.443 102.557 383.097 102.365 383.613 101.982C384.128 101.598 384.386 100.997 384.386 100.179V98.1847H384.258C384.148 98.3636 383.99 98.5852 383.785 98.8494C383.585 99.1094 383.295 99.3416 382.916 99.5462C382.541 99.7464 382.034 99.8466 381.395 99.8466C380.602 99.8466 379.89 99.6591 379.26 99.2841C378.633 98.9091 378.137 98.3636 377.77 97.6477C377.408 96.9318 377.227 96.0625 377.227 95.0398C377.227 94.0341 377.404 93.1584 377.758 92.4126C378.111 91.6626 378.604 91.0831 379.234 90.674C379.865 90.2607 380.594 90.054 381.42 90.054C382.059 90.054 382.567 90.1605 382.942 90.3736C383.321 90.5824 383.611 90.821 383.811 91.0895C384.015 91.3537 384.173 91.571 384.284 91.7415H384.437V90.1818H385.895V100.281C385.895 101.125 385.703 101.811 385.319 102.339C384.94 102.872 384.429 103.262 383.785 103.509C383.146 103.761 382.434 103.886 381.65 103.886ZM381.599 98.4915C382.204 98.4915 382.716 98.353 383.133 98.076C383.551 97.799 383.868 97.4006 384.086 96.8807C384.303 96.3608 384.412 95.7386 384.412 95.0142C384.412 94.3068 384.305 93.6825 384.092 93.1413C383.879 92.6001 383.564 92.1761 383.146 91.8693C382.729 91.5625 382.213 91.4091 381.599 91.4091C380.96 91.4091 380.427 91.571 380.001 91.8949C379.579 92.2187 379.262 92.6534 379.049 93.1989C378.84 93.7443 378.736 94.3494 378.736 95.0142C378.736 95.696 378.842 96.299 379.055 96.8232C379.273 97.343 379.592 97.7521 380.014 98.0504C380.44 98.3445 380.969 98.4915 381.599 98.4915Z" fill="white"></path>
    <circle id="Ellipse 1" cx="79.5" cy="128.5" r="37.5" fill="#0B72BD" anim:opacity="1[0.5:1.5:0:ease-in-out]" anim:scale="0[0.5:1.5:1:ease-in-out]"></circle>
    <g id="cursor" filter="url(#filter0_d_63_275)" anim:opacity="0[0:1:1:ease-in-out][2:2.5:0:ease-in-out]" anim:x="50[0:0.6:0:ease-in-out]" anim:y="30[0.2:0.6:0:ease-in-out]">
      <path d="M80.0225 130.214C79.8449 129.365 80.7537 128.704 81.5063 129.136L111.494 146.322C112.257 146.76 112.131 147.897 111.29 148.155L96.7352 152.633C96.5099 152.702 96.316 152.848 96.1876 153.046L88.9032 164.267C88.4147 165.02 87.2598 164.804 87.0761 163.926L80.0225 130.214Z" fill="#333333"></path>
      <path fill-rule="evenodd" clip-rule="evenodd" d="M82.4488 131.993L88.5446 161.127L94.5013 151.951C94.8865 151.358 95.468 150.919 96.1441 150.711L108.485 146.915L82.4488 131.993ZM81.5063 129.136C80.7537 128.704 79.8449 129.365 80.0225 130.214L87.0761 163.926C87.2598 164.804 88.4147 165.02 88.9032 164.267L96.1876 153.046C96.316 152.848 96.5099 152.702 96.7352 152.633L111.29 148.155C112.131 147.897 112.257 146.76 111.494 146.322L81.5063 129.136Z" fill="white"></path>
    </g>
  </g>
  <defs>
    <filter id="filter0_d_63_275" x="40.2482" y="109.124" width="111.504" height="115.229" filterUnits="userSpaceOnUse" color-interpolation-filters="sRGB">
      <feFlood flood-opacity="0" result="BackgroundImageFix"></feFlood>
      <feColorMatrix in="SourceAlpha" type="matrix" values="0 0 0 0 0 0 0 0 0 0 0 0 0 0 0 0 0 0 127 0" result="hardAlpha"></feColorMatrix>
      <feOffset dy="19.8759"></feOffset>
      <feGaussianBlur stdDeviation="19.8759"></feGaussianBlur>
      <feColorMatrix type="matrix" values="0 0 0 0 0 0 0 0 0 0 0 0 0 0 0 0 0 0 0.28 0"></feColorMatrix>
      <feBlend mode="normal" in2="BackgroundImageFix" result="effect1_dropShadow_63_275"></feBlend>
      <feBlend mode="normal" in="SourceGraphic" in2="effect1_dropShadow_63_275" result="shape"></feBlend>
    </filter>
  </defs>
</svg>